<svg width="50" height="50" viewBox="0 0 50 50" fill="none" xmlns="http://www.w3.org/2000/svg">
<g clip-path="url(#clip0_118_2586)">
<path d="M47.2072 43.915L43.0802 35.6607C42.8658 35.2319 42.3442 35.0581 41.9153 35.2724C41.4864 35.487 41.3125 36.0084 41.527 36.4374L45.6541 44.6916C45.8682 45.1198 45.694 45.6423 45.2656 45.8566C45.1435 45.9176 45.0135 45.9486 44.879 45.9486C44.5474 45.9486 44.2492 45.7645 44.1011 45.4681L39.9968 37.2596C42.2379 34.0825 44.0728 30.0376 45.2628 25.5971C46.7388 20.0886 47.0515 14.6109 46.1432 10.1729C45.1922 5.52529 43.0026 2.51951 39.978 1.70905L34.387 0.210998C31.5864 -0.539397 28.4134 0.725161 25.4531 3.77196C22.6539 6.65303 20.2151 10.9441 18.5862 15.8545C18.4352 16.3097 18.6818 16.801 19.1369 16.9519C19.5923 17.1036 20.0834 16.8564 20.2343 16.4012C21.7825 11.7343 24.0781 7.67891 26.6985 4.98202C29.201 2.40671 31.7717 1.30827 33.9375 1.88816C36.2936 2.51951 38.0385 5.05331 38.8509 9.02277C39.706 13.2018 39.4018 18.3965 37.9943 23.6494C36.5868 28.9026 34.253 33.5533 31.4228 36.7447C28.7347 39.7763 25.9567 41.0977 23.6004 40.4669C21.4585 39.8929 19.7907 37.6928 18.9045 34.2718C17.9771 30.6917 17.986 26.1001 18.9294 21.3428C19.0228 20.8724 18.717 20.4155 18.2466 20.3222C17.7758 20.2287 17.3194 20.5347 17.226 21.005C16.2328 26.0133 16.232 30.8795 17.2236 34.7073C18.2735 38.7602 20.3786 41.4012 23.1511 42.1441L24.4147 42.4826L23.8601 44.3313C23.4474 45.707 24.2308 47.1619 25.6064 47.5748C25.8541 47.6491 26.1069 47.6859 26.3583 47.6859C26.7835 47.6859 27.2048 47.5805 27.5898 47.3733C28.2024 47.0433 28.6498 46.4948 28.8497 45.8284L29.0999 44.9946C29.2377 44.5352 28.9771 44.0513 28.5179 43.9134C28.0587 43.7759 27.5746 44.0364 27.4367 44.4954L27.1865 45.3292C27.1198 45.5513 26.9707 45.7342 26.7665 45.8442C26.5623 45.9541 26.3277 45.9782 26.1055 45.9114C25.647 45.7739 25.3857 45.2888 25.5232 44.8302L26.0927 42.9322L28.7419 43.6421C29.2762 43.7853 29.822 43.8562 30.3761 43.8562C30.4824 43.8562 30.5892 43.8526 30.6961 43.8474V47.3952C30.6961 48.8314 31.8646 50 33.3008 50C34.7372 50 35.9056 48.8314 35.9056 47.3952V43.6616C35.9056 43.182 35.5168 42.7934 35.0374 42.7934C34.5579 42.7934 34.1691 43.182 34.1691 43.6616V47.3952C34.1691 47.874 33.7796 48.2634 33.3008 48.2634C32.822 48.2634 32.4326 47.874 32.4326 47.3952V43.5423C34.3919 42.9559 36.399 41.5532 38.313 39.3948C38.4851 39.2007 38.6552 39.001 38.8238 38.797L42.5477 46.2446C42.9919 47.133 43.8851 47.6848 44.8787 47.6848C45.2796 47.6848 45.682 47.5895 46.0423 47.4093C47.3271 46.7672 47.8496 45.1996 47.2072 43.915ZM38.3174 36.6229C38.2978 36.6466 38.2799 36.6711 38.263 36.6965C37.8587 37.243 37.4421 37.7599 37.0137 38.2429C35.1534 40.3408 33.25 41.619 31.4732 41.9985C31.4224 42.0039 31.3732 42.0142 31.3253 42.0278C30.587 42.1653 29.8715 42.147 29.1914 41.9649L27.944 41.6307C29.5478 40.9072 31.1657 39.6519 32.7221 37.8969C35.7277 34.5076 38.1957 29.6074 39.6718 24.0989C41.1478 18.5905 41.4604 13.1127 40.5522 8.67472C40.0819 6.37637 39.3083 4.48036 38.281 3.05203L39.5287 3.38641C41.8849 4.01776 43.6299 6.55156 44.4421 10.5211C45.2973 14.7001 44.9931 19.8948 43.5855 25.1478C42.4004 29.5702 40.5588 33.5655 38.3174 36.6229Z" fill="black"/>
<path d="M28.9422 21.1021L12.2969 15.6092L12.2737 12.5627C12.27 12.0854 11.8821 11.7011 11.4056 11.7011C11.4033 11.7011 11.4011 11.7011 11.3988 11.7011C10.9193 11.7047 10.5336 12.0964 10.5372 12.5759L10.5558 15.0348L9.36063 14.6404L9.33758 11.6089C9.33397 11.1316 8.94598 10.7473 8.46941 10.7473C8.46716 10.7473 8.46492 10.7473 8.46267 10.7473C7.98318 10.7509 7.59733 11.1426 7.60105 11.6221L7.6196 14.0659L6.40153 13.664V10.6612C6.40153 10.1816 6.01276 9.79297 5.53326 9.79297C5.05377 9.79297 4.66499 10.1816 4.66499 10.6612V14.0393L2.6852 16.756C2.40277 17.1436 2.48793 17.6867 2.87553 17.9691C3.02983 18.0816 3.20873 18.1357 3.38618 18.1357C3.65415 18.1357 3.9187 18.012 4.08852 17.7787L5.88014 15.3202L7.0904 15.7197L5.62437 17.7058C5.33961 18.0916 5.42154 18.6352 5.80729 18.92C5.96246 19.0344 6.14313 19.0898 6.32223 19.0898C6.58834 19.0898 6.85114 18.9676 7.02145 18.7371L8.82605 16.2924L10.0177 16.6857L8.56043 18.6597C8.27566 19.0455 8.35759 19.5891 8.74334 19.8739C8.89861 19.9883 9.07918 20.0436 9.25838 20.0436C9.52449 20.0436 9.78729 19.9215 9.9576 19.691L11.7534 17.2583L28.3981 22.7512C28.4885 22.781 28.5802 22.7952 28.6704 22.7952C29.0349 22.7952 29.3743 22.5638 29.4948 22.1989C29.6449 21.7433 29.3977 21.2524 28.9422 21.1021Z" fill="black"/>
<path d="M32.5884 6.92003C30.675 6.40753 28.5198 7.21681 26.5204 9.19973C24.6782 11.0267 23.0422 13.7726 21.9135 16.9317C21.7521 17.3832 21.9876 17.8801 22.4391 18.0415C22.8905 18.2026 23.3875 17.9675 23.5489 17.516C24.592 14.5962 26.0815 12.0807 27.7433 10.4327C29.2858 8.90295 30.8469 8.25061 32.1391 8.59729C33.5773 8.98264 34.6953 10.6356 35.2061 13.1322C35.7674 15.8751 35.5661 19.2909 34.6391 22.7503C33.7121 26.2099 32.1787 29.2688 30.3211 31.3634C28.6304 33.2701 26.8359 34.1427 25.3975 33.7573C22.7421 33.0458 21.4117 28.1708 22.303 22.4181C22.3762 21.9442 22.0516 21.5006 21.5778 21.4272C21.1027 21.353 20.6601 21.6783 20.5869 22.1522C19.5258 29.0004 21.3193 34.4625 24.948 35.4347C25.3297 35.537 25.7189 35.5875 26.1137 35.5875C27.9194 35.5874 29.8356 34.5283 31.6202 32.5156C33.6533 30.2231 35.3208 26.9147 36.3164 23.1998C38.4584 15.2051 36.8209 8.05422 32.5884 6.92003Z" fill="black"/>
<path d="M33.2628 16.8939C32.8995 15.1187 32.0214 13.9594 30.7905 13.6297C28.8495 13.1098 26.6941 14.8187 25.2996 17.9839C25.1063 18.4227 25.3053 18.9352 25.7442 19.1285C26.1829 19.3219 26.6954 19.1229 26.8888 18.6839C27.9899 16.1846 29.4895 15.0786 30.3411 15.3069C30.8955 15.4554 31.3403 16.1608 31.5616 17.242C31.829 18.5487 31.7303 20.1859 31.2839 21.8516C31.2567 21.9534 31.2284 22.0539 31.1991 22.1533C31.1893 22.1865 31.179 22.219 31.169 22.252C31.1491 22.3176 31.1292 22.3834 31.1086 22.448C31.0961 22.487 31.0831 22.5253 31.0704 22.5639C31.0514 22.6216 31.0324 22.6793 31.0127 22.7361C30.9988 22.7765 30.9842 22.8161 30.9701 22.856C30.9507 22.9099 30.9315 22.9639 30.9118 23.017C30.8966 23.0575 30.8811 23.0973 30.8657 23.1374C30.8458 23.1887 30.8261 23.2399 30.8058 23.2905C30.7898 23.3303 30.7735 23.3698 30.7572 23.4092C30.7367 23.4586 30.7162 23.5078 30.6954 23.5564C30.6786 23.5955 30.6616 23.6341 30.6446 23.6725C30.6235 23.7204 30.6022 23.7677 30.5807 23.8146C30.5633 23.8525 30.5458 23.8901 30.5282 23.9274C30.5063 23.9736 30.4843 24.0194 30.4621 24.0648C30.4442 24.1014 30.4263 24.1378 30.4081 24.1737C30.3856 24.2186 30.3626 24.263 30.3397 24.3071C30.3214 24.3421 30.3033 24.3771 30.2848 24.4115C30.2613 24.4554 30.2375 24.4985 30.2137 24.5415C30.1954 24.5746 30.1771 24.6078 30.1586 24.6403C30.1339 24.6836 30.1091 24.7259 30.0842 24.7681C30.0661 24.7989 30.048 24.8301 30.0297 24.8603C30.0034 24.9039 29.9767 24.9464 29.95 24.9888C29.933 25.0162 29.9158 25.0439 29.8985 25.071C29.8693 25.1165 29.8398 25.1606 29.8103 25.2047C29.7952 25.2272 29.7802 25.2505 29.765 25.2728C29.7265 25.3291 29.6879 25.3839 29.649 25.4378C29.6426 25.4467 29.6363 25.456 29.6298 25.4648C29.5843 25.5276 29.5385 25.5886 29.4925 25.6479C29.4806 25.6634 29.4686 25.6778 29.4567 25.693C29.4228 25.7361 29.3888 25.779 29.3548 25.8203C29.3379 25.8408 29.321 25.8601 29.3041 25.8801C29.2748 25.9146 29.2455 25.9493 29.2162 25.9825C29.1976 26.0037 29.1788 26.0238 29.1601 26.0444C29.1325 26.0749 29.1047 26.1054 29.0771 26.1345C29.0576 26.1552 29.0378 26.1749 29.0182 26.195C28.9913 26.2225 28.9646 26.2498 28.9377 26.276C28.9176 26.2957 28.8974 26.3145 28.8773 26.3336C28.851 26.3584 28.8247 26.383 28.7986 26.4066C28.7781 26.425 28.7577 26.4429 28.7372 26.4607C28.7113 26.4832 28.6855 26.5053 28.6597 26.5267C28.6393 26.5436 28.619 26.56 28.5986 26.5761C28.5729 26.5965 28.5472 26.6162 28.5216 26.6354C28.5012 26.6507 28.4809 26.6656 28.4606 26.6803C28.4352 26.6984 28.4099 26.7158 28.3846 26.7327C28.3644 26.7463 28.3442 26.7598 28.3241 26.7727C28.2987 26.7888 28.2736 26.8039 28.2485 26.8187C28.2287 26.8305 28.209 26.8423 28.1893 26.8532C28.1639 26.8674 28.1388 26.8802 28.1137 26.8931C28.0946 26.9028 28.0754 26.913 28.0563 26.922C28.0309 26.934 28.0058 26.9445 27.9808 26.9552C27.9624 26.9631 27.9439 26.9714 27.9256 26.9785C27.8996 26.9886 27.874 26.9971 27.8484 27.0056C27.8315 27.0112 27.8143 27.0177 27.7977 27.0227C27.7689 27.0312 27.7405 27.0378 27.7122 27.0444C27.699 27.0476 27.6856 27.0516 27.6725 27.0543C27.6318 27.0626 27.5914 27.0687 27.5518 27.0729C27.5388 27.0742 27.5262 27.0741 27.5132 27.075C27.4865 27.0769 27.46 27.0788 27.4338 27.0787C27.4039 27.0786 27.3747 27.076 27.3456 27.0732C27.3346 27.0722 27.3232 27.0724 27.3123 27.0709C27.2725 27.0658 27.2335 27.0583 27.1954 27.0479C26.3732 26.8276 25.812 25.3499 25.8309 23.4545C25.8354 22.975 25.4506 22.5824 24.9711 22.5776C24.9682 22.5776 24.9653 22.5776 24.9623 22.5776C24.4868 22.5776 24.0989 22.9608 24.0943 23.4373C24.066 26.2959 25.0571 28.2729 26.7458 28.7253C26.977 28.7872 27.2107 28.8173 27.4454 28.8173C29.6389 28.8173 31.9202 26.1878 32.9616 22.3008C33.4761 20.3798 33.5833 18.4595 33.2628 16.8939Z" fill="black"/>
</g>
<defs>
<clipPath id="clip0_118_2586">
<rect width="50" height="50" fill="white"/>
</clipPath>
</defs>
</svg>
