<svg width="47" height="46" viewBox="0 0 47 46" fill="none" xmlns="http://www.w3.org/2000/svg">
<path d="M25.5292 26.504C27.9968 26.504 30.3632 25.5238 32.108 23.779C33.8528 22.0342 34.833 19.6678 34.833 17.2003C34.833 14.7327 33.8528 12.3663 32.108 10.6215C30.3632 8.8767 27.9968 7.89648 25.5292 7.89648H12.833C12.2807 7.89648 11.833 8.3442 11.833 8.89648V9.71048C11.833 10.2628 12.2807 10.7105 12.833 10.7105H15.3455V23.69H12.833C12.2807 23.69 11.833 24.1377 11.833 24.69V25.504C11.833 26.0563 12.2807 26.504 12.833 26.504H15.3455V30.3645H12.833C12.2807 30.3645 11.833 30.8122 11.833 31.3645V32.1785C11.833 32.7307 12.2807 33.1785 12.833 33.1785H15.3455V38.103H18.1595V33.1785H25.6065C26.1588 33.1785 26.6065 32.7307 26.6065 32.1785V31.3645C26.6065 30.8122 26.1588 30.3645 25.6065 30.3645H18.1595V26.504H25.5292ZM18.1595 10.7105H25.5292C26.3815 10.7105 27.2254 10.8783 28.0128 11.2045C28.8001 11.5306 29.5156 12.0087 30.1182 12.6113C30.7208 13.2139 31.1989 13.9293 31.525 14.7167C31.8512 15.5041 32.019 16.348 32.019 17.2003C32.019 18.0525 31.8512 18.8964 31.525 19.6838C31.1989 20.4712 30.7208 21.1866 30.1182 21.7892C29.5156 22.3918 28.8001 22.8699 28.0128 23.196C27.2254 23.5222 26.3815 23.69 25.5292 23.69H18.1595V10.7105Z" fill="#262626"/>
</svg>
