<svg width="51" height="50" viewBox="0 0 51 50" fill="none" xmlns="http://www.w3.org/2000/svg">
<path d="M43.6665 14.5708V8.74386C43.6665 8.54658 43.5888 8.35737 43.4504 8.21787C43.3121 8.07837 43.1245 8 42.9288 8H15.3831C15.1875 8 14.9998 8.07837 14.8615 8.21787C14.7232 8.35737 14.6455 8.54658 14.6455 8.74386V13.8269C14.6455 14.0242 14.7232 14.2134 14.8615 14.3529C14.9998 14.4924 15.1875 14.5708 15.3831 14.5708H38.7051M25.7166 19.2149H15.3831C15.1875 19.2149 14.9998 19.2933 14.8615 19.4328C14.7232 19.5723 14.6455 19.7615 14.6455 19.9588V25.0418C14.6455 25.2391 14.7232 25.4283 14.8615 25.5678C14.9998 25.7073 15.1875 25.7857 15.3831 25.7857H25.1812M25.7166 30.4292H15.3831C15.1875 30.4292 14.9998 30.5076 14.8615 30.6471C14.7232 30.7866 14.6455 30.9758 14.6455 31.1731V36.2561C14.6455 36.4534 14.7232 36.6426 14.8615 36.7821C14.9998 36.9216 15.1875 37 15.3831 37H25.1812M4.40417 8.00062H9.44428C9.85169 8.00062 10.182 8.33366 10.182 8.74448V13.8269C10.182 14.2377 9.85169 14.5708 9.44428 14.5708H4.40417C3.99677 14.5708 3.6665 14.2377 3.6665 13.8269V8.74448C3.6665 8.33366 3.99677 8.00062 4.40417 8.00062ZM4.40417 19.2149H9.44428C9.85169 19.2149 10.182 19.548 10.182 19.9588V25.0412C10.182 25.452 9.85169 25.7851 9.44428 25.7851H4.40417C3.99677 25.7851 3.6665 25.452 3.6665 25.0412V19.9588C3.6665 19.548 3.99677 19.2149 4.40417 19.2149ZM4.40417 30.4299H9.44428C9.85169 30.4299 10.182 30.7629 10.182 31.1737V36.2561C10.182 36.667 9.85169 37 9.44428 37H4.40417C3.99677 37 3.6665 36.667 3.6665 36.2561V31.1737C3.6665 30.7629 3.99677 30.4299 4.40417 30.4299Z" stroke="#262626" stroke-width="2" stroke-miterlimit="10" stroke-linecap="round"/>
<path d="M37.6665 32L33.9694 35.6611C30.3163 39.2787 28.4897 41.0875 29.0011 42.6481C29.045 42.7822 29.0996 42.9127 29.1643 43.0384C29.9171 44.5 32.5002 44.5 37.6665 44.5C42.8328 44.5 45.4159 44.5 46.1686 43.0384C46.2334 42.9127 46.288 42.7822 46.3319 42.6481C46.6196 41.77 46.1671 40.8132 45.0656 39.5M37.6665 32L41.3636 35.6611M37.6665 32L41.3636 28.3388C45.0168 24.7212 46.8433 22.9125 46.3319 21.3519C46.288 21.2177 46.2334 21.0872 46.1686 20.9616C45.4159 19.5 42.8328 19.5 37.6665 19.5C32.5002 19.5 29.9171 19.5 29.1643 20.9616C29.0996 21.0872 29.045 21.2177 29.0011 21.3519C28.7133 22.23 29.1658 23.1867 30.2674 24.5M37.6665 32L33.9694 28.3388M35.1665 23.875H40.1665M35.1665 40.125H40.1665" stroke="#262626" stroke-width="2" stroke-miterlimit="10" stroke-linecap="round"/>
</svg>
