<svg width="50" height="50" viewBox="0 0 50 50" fill="none" xmlns="http://www.w3.org/2000/svg">
<path d="M41.9845 38.9848L47.0002 44M27.0002 32.7783C26.9996 28.5915 29.957 24.9872 34.0638 24.1697C38.1707 23.3523 42.2831 25.5495 43.886 29.4175C45.489 33.2856 44.136 37.7471 40.6545 40.0737C37.1731 42.4002 32.5329 41.9438 29.5717 38.9834C27.9254 37.338 27.0004 35.106 27.0002 32.7783Z" stroke="#262626" stroke-width="2.5" stroke-linecap="round" stroke-linejoin="round"/>
<path fill-rule="evenodd" clip-rule="evenodd" d="M39.0002 7.24287C39.0002 6.84669 38.8147 6.47425 38.5007 6.24016C38.1867 6.00608 37.7819 5.9384 37.4109 6.05795L8.78927 15.28H5.22117C4.54687 15.28 4.00024 15.8364 4.00024 16.5229V24.4771C4.00024 25.1636 4.54687 25.72 5.22117 25.72H8.78927L11.2616 26.5166L11.1876 26.7779C10.3886 29.4982 11.8102 32.6025 14.6214 33.4842C17.3031 34.3649 20.238 32.759 21.0463 29.8563L21.0472 29.8531L21.0949 29.6849L22.8052 30.236C23.4679 30.4495 24.16 29.9949 24.3291 29.3195C24.4819 28.7093 24.1662 28.0673 23.5675 27.8744L9.34632 23.2922C9.22714 23.2538 9.10288 23.2343 8.97788 23.2343H6.4421V17.7657H8.97788C9.10288 17.7657 9.22714 17.7462 9.34632 17.7078L36.5584 8.93989V20.2413C36.5584 20.7393 36.9263 21.1565 37.4123 21.2653C37.4767 21.2797 37.5409 21.2947 37.6049 21.3102C38.289 21.4763 39.0002 20.9898 39.0002 20.2858V7.24287ZM13.5283 27.4862L13.5904 27.267L18.7661 28.9346L18.6992 29.1704L18.6975 29.1766C18.2533 30.7756 16.6878 31.5539 15.366 31.1167L15.3457 31.1103C13.9084 30.6628 13.0805 29.0033 13.5283 27.4862Z" fill="#262626"/>
</svg>
