<svg width="50" height="50" viewBox="0 0 50 50" fill="none" xmlns="http://www.w3.org/2000/svg">
<path d="M43 14.5708V8.74386C43 8.54658 42.9223 8.35737 42.7839 8.21787C42.6456 8.07837 42.458 8 42.2623 8H14.7166C14.521 8 14.3333 8.07837 14.195 8.21787C14.0567 8.35737 13.9789 8.54658 13.9789 8.74386V13.8269C13.9789 14.0242 14.0567 14.2134 14.195 14.3529C14.3333 14.4924 14.521 14.5708 14.7166 14.5708H38.0386M25.0501 19.2149H14.7166C14.521 19.2149 14.3333 19.2933 14.195 19.4328C14.0567 19.5723 13.9789 19.7615 13.9789 19.9588V25.0418C13.9789 25.2391 14.0567 25.4283 14.195 25.5678C14.3333 25.7073 14.521 25.7857 14.7166 25.7857H24.5147M25.0501 30.4292H14.7166C14.521 30.4292 14.3333 30.5076 14.195 30.6471C14.0567 30.7866 13.9789 30.9758 13.9789 31.1731V36.2561C13.9789 36.4534 14.0567 36.6426 14.195 36.7821C14.3333 36.9216 14.521 37 14.7166 37H24.5147M3.73767 8.00062H8.77778C9.18518 8.00062 9.51545 8.33366 9.51545 8.74448V13.8269C9.51545 14.2377 9.18518 14.5708 8.77778 14.5708H3.73767C3.33026 14.5708 3 14.2377 3 13.8269V8.74448C3 8.33366 3.33026 8.00062 3.73767 8.00062ZM3.73767 19.2149H8.77778C9.18518 19.2149 9.51545 19.548 9.51545 19.9588V25.0412C9.51545 25.452 9.18518 25.7851 8.77778 25.7851H3.73767C3.33026 25.7851 3 25.452 3 25.0412V19.9588C3 19.548 3.33026 19.2149 3.73767 19.2149ZM3.73767 30.4299H8.77778C9.18518 30.4299 9.51545 30.7629 9.51545 31.1737V36.2561C9.51545 36.667 9.18518 37 8.77778 37H3.73767C3.33026 37 3 36.667 3 36.2561V31.1737C3 30.7629 3.33026 30.4299 3.73767 30.4299Z" stroke="#262626" stroke-width="2" stroke-miterlimit="10" stroke-linecap="round"/>
<path d="M46.9952 47C47.1616 47 47.3286 46.9581 47.48 46.8737C47.8009 46.6954 48 46.3546 48 45.9847V19.0153C48 18.4544 47.5503 18 46.9952 18H29.0048C28.4497 18 28 18.4544 28 19.0153V45.9847C28 46.3546 28.1991 46.6954 28.52 46.8737C28.8409 47.052 29.2322 47.0406 29.5418 46.8426L38 41.4392L46.4582 46.8433C46.6221 46.9473 46.8086 47 46.9952 47ZM45.9903 44.1412L38.537 39.3794C38.373 39.2747 38.1865 39.222 38 39.222C37.8135 39.222 37.627 39.2747 37.463 39.3794L30.0097 44.1412V20.0306H45.991L45.9903 44.1412Z" fill="#262626"/>
<path d="M35.7504 34.0135C35.9464 34.2114 36.2039 34.3111 36.4607 34.3111C36.7176 34.3111 36.9751 34.2121 37.171 34.0135L43.2082 27.9133C43.6007 27.5167 43.6007 26.8739 43.2082 26.4773C42.8157 26.0807 42.1795 26.0807 41.787 26.4773L36.4607 31.8591L34.213 29.5879C33.8205 29.1913 33.1843 29.1913 32.7918 29.5879C32.3993 29.9846 32.3993 30.6274 32.7918 31.024L35.7504 34.0135Z" fill="#262626"/>
</svg>
