<svg width="1136" height="820" viewBox="0 0 1136 820" fill="none" xmlns="http://www.w3.org/2000/svg">
<g opacity="0.8" clip-path="url(#clip0_319_5962)">
<path fill-rule="evenodd" clip-rule="evenodd" d="M815.36 435H733.012C727.606 435 722.43 437.189 718.664 441.067L373.95 796.067C361.635 808.749 370.621 830 388.298 830H433.448C438.905 830 444.125 827.77 447.897 823.828L820 435" fill="url(#paint0_linear_319_5962)" fill-opacity="0.8"/>
<path fill-rule="evenodd" clip-rule="evenodd" d="M1115.64 393.098H946.822C941.492 393.098 936.382 395.225 932.627 399.009L599.224 734.916C586.705 747.528 595.624 768.984 613.395 769.005L749.932 769.168C755.353 769.175 760.543 766.981 764.316 763.089L1123 393.098" fill="url(#paint1_linear_319_5962)"/>
<path fill-rule="evenodd" clip-rule="evenodd" d="M810.63 220.102H623.536C618.198 220.102 613.081 222.236 609.325 226.029L355.2 482.655C342.52 495.46 351.913 517.186 369.927 516.721L520.079 512.847C525.254 512.713 530.175 510.579 533.808 506.892L816.453 220.102" fill="url(#paint2_linear_319_5962)" fill-opacity="0.6"/>
<path fill-rule="evenodd" clip-rule="evenodd" d="M592.945 48.8669C592.945 31.0053 571.313 22.1019 558.74 34.7887L449.429 145.088C436.917 157.714 445.86 179.167 463.635 179.167H572.945C583.991 179.167 592.945 170.212 592.945 159.167V48.8669Z" fill="url(#paint3_linear_319_5962)" fill-opacity="0.6"/>
<path fill-rule="evenodd" clip-rule="evenodd" d="M718.465 120.462C718.465 102.606 696.843 93.7002 684.267 106.376L594.043 197.318C581.521 209.94 590.462 231.404 608.241 231.404H698.465C709.51 231.404 718.465 222.449 718.465 211.404V120.462Z" fill="url(#paint4_linear_319_5962)" fill-opacity="0.9"/>
<path fill-rule="evenodd" clip-rule="evenodd" d="M936.156 210.278C936.156 192.423 914.538 183.516 901.96 196.19L757.845 341.407C745.32 354.028 754.26 375.495 772.041 375.495H916.156C927.202 375.495 936.156 366.54 936.156 355.495V210.278Z" fill="url(#paint5_linear_319_5962)"/>
<path fill-rule="evenodd" clip-rule="evenodd" d="M987.962 662.368C975.291 674.721 954 665.744 954 648.048V559.48C954 548.435 962.954 539.48 974 539.48H1064.84C1082.78 539.48 1091.65 561.276 1078.8 573.8L987.962 662.368Z" fill="url(#paint6_linear_319_5962)" fill-opacity="0.5"/>
<path fill-rule="evenodd" clip-rule="evenodd" d="M366.773 382.272C354.362 395.469 332.203 386.686 332.203 368.571V262.016C332.203 250.97 341.157 242.016 352.203 242.016H452.41C469.934 242.016 478.984 262.952 466.98 275.717L366.773 382.272Z" fill="url(#paint7_linear_319_5962)"/>
<path fill-rule="evenodd" clip-rule="evenodd" d="M114.64 472.871C114.64 467.598 116.722 462.539 120.434 458.793L328.447 248.869C341.019 236.181 362.653 245.084 362.653 262.946V317.99C362.653 323.267 360.567 328.331 356.85 332.077L148.837 541.695C136.26 554.369 114.64 545.463 114.64 527.608V472.871Z" fill="url(#paint8_linear_319_5962)" fill-opacity="0.5"/>
<path fill-rule="evenodd" clip-rule="evenodd" d="M522.538 655.48C504.973 655.48 495.94 634.46 508.028 621.716L607.49 516.862C619.928 503.749 642 512.552 642 530.626V635.48C642 646.526 633.046 655.48 622 655.48H522.538Z" fill="url(#paint9_linear_319_5962)" fill-opacity="0.8"/>
<path d="M335.314 680.267C343.129 688.11 355.827 688.112 363.644 680.272L462.985 580.64C475.555 568.034 466.628 546.522 448.826 546.519L250.174 546.488C232.372 546.485 223.438 567.994 236.004 580.605L335.314 680.267Z" fill="url(#paint10_linear_319_5962)" fill-opacity="0.7"/>
<path fill-rule="evenodd" clip-rule="evenodd" d="M285 609.952C285 592.041 263.264 583.161 250.722 595.948L97.7218 751.936C94.0544 755.675 92 760.703 92 765.941V894.921C92 896.417 93.8133 897.16 94.8631 896.095L279.244 709.023C282.932 705.281 285 700.238 285 694.984V609.952Z" fill="#00DBDA" fill-opacity="0.5"/>
<path d="M605.834 860.381C604.988 861.276 603.576 861.316 602.68 860.471C601.783 859.624 601.743 858.209 602.591 857.313L1132.61 297.066C1133.45 296.174 1134.86 296.139 1135.75 296.989C1136.63 297.831 1136.66 299.227 1135.83 300.112L605.834 860.381Z" fill="url(#paint11_linear_319_5962)" fill-opacity="0.5"/>
<path d="M861.794 198.042L330.758 760.272C329.916 761.163 329.956 762.567 330.847 763.408C331.737 764.25 333.141 764.21 333.982 763.319L865.019 201.088C865.86 200.198 865.82 198.794 864.929 197.952C864.039 197.111 862.635 197.151 861.794 198.042Z" fill="url(#paint12_linear_319_5962)"/>
</g>
<defs>
<linearGradient id="paint0_linear_319_5962" x1="341" y1="632.5" x2="820" y2="632.5" gradientUnits="userSpaceOnUse">
<stop stop-color="#FFFF1C"/>
<stop offset="0.98" stop-color="#00CE95"/>
</linearGradient>
<linearGradient id="paint1_linear_319_5962" x1="565.445" y1="581" x2="1193" y2="581" gradientUnits="userSpaceOnUse">
<stop stop-color="#42B5E6"/>
<stop offset="0.17" stop-color="#55C8F1"/>
<stop offset="0.35" stop-color="#63D6F9"/>
<stop offset="0.59" stop-color="#6BDEFD"/>
<stop offset="1" stop-color="#6EE1FF"/>
</linearGradient>
<linearGradient id="paint2_linear_319_5962" x1="320.195" y1="369.035" x2="816.453" y2="369.035" gradientUnits="userSpaceOnUse">
<stop offset="0.02" stop-color="#00FFFF"/>
<stop offset="0.28" stop-color="#18DDFB"/>
<stop offset="0.57" stop-color="#2DC0F7"/>
<stop offset="0.82" stop-color="#3AAFF5"/>
<stop offset="1" stop-color="#3FA9F5"/>
</linearGradient>
<linearGradient id="paint3_linear_319_5962" x1="487.786" y1="61.0368" x2="565.268" y2="195.142" gradientUnits="userSpaceOnUse">
<stop stop-color="#FFFF1C"/>
<stop offset="0.98" stop-color="#00CE95"/>
</linearGradient>
<linearGradient id="paint4_linear_319_5962" x1="624.574" y1="126.063" x2="693.693" y2="245.711" gradientUnits="userSpaceOnUse">
<stop stop-color="#42B5E6"/>
<stop offset="0.17" stop-color="#55C8F1"/>
<stop offset="0.35" stop-color="#63D6F9"/>
<stop offset="0.59" stop-color="#6BDEFD"/>
<stop offset="1" stop-color="#6EE1FF"/>
</linearGradient>
<linearGradient id="paint5_linear_319_5962" x1="724.016" y1="268.614" x2="936.156" y2="268.614" gradientUnits="userSpaceOnUse">
<stop stop-color="#3FA9F5"/>
<stop offset="0.18" stop-color="#3AAFF5"/>
<stop offset="0.43" stop-color="#2DC0F7"/>
<stop offset="0.72" stop-color="#18DDFB"/>
<stop offset="0.98" stop-color="#00FFFF"/>
</linearGradient>
<linearGradient id="paint6_linear_319_5962" x1="916.013" y1="657.483" x2="1074.03" y2="499.535" gradientUnits="userSpaceOnUse">
<stop stop-color="#3FA9F5"/>
<stop offset="0.18" stop-color="#3AAFF5"/>
<stop offset="0.43" stop-color="#2DC0F7"/>
<stop offset="0.72" stop-color="#18DDFB"/>
<stop offset="0.98" stop-color="#00FFFF"/>
</linearGradient>
<linearGradient id="paint7_linear_319_5962" x1="332.203" y1="330.524" x2="498.673" y2="330.524" gradientUnits="userSpaceOnUse">
<stop offset="0.02" stop-color="#00FFFF"/>
<stop offset="0.28" stop-color="#18DDFB"/>
<stop offset="0.57" stop-color="#2DC0F7"/>
<stop offset="0.82" stop-color="#3AAFF5"/>
<stop offset="1" stop-color="#3FA9F5"/>
</linearGradient>
<linearGradient id="paint8_linear_319_5962" x1="362.653" y1="395.252" x2="114.64" y2="395.252" gradientUnits="userSpaceOnUse">
<stop stop-color="#69FFD6"/>
<stop offset="0.98" stop-color="#00CE95"/>
</linearGradient>
<linearGradient id="paint9_linear_319_5962" x1="476" y1="567.994" x2="647.952" y2="567.994" gradientUnits="userSpaceOnUse">
<stop stop-color="#EBEB08"/>
<stop offset="0.98" stop-color="#00CE95"/>
</linearGradient>
<linearGradient id="paint10_linear_319_5962" x1="202" y1="620.48" x2="497" y2="620.48" gradientUnits="userSpaceOnUse">
<stop stop-color="#FFFF1C"/>
<stop offset="0.98" stop-color="#00CE95"/>
</linearGradient>
<linearGradient id="paint11_linear_319_5962" x1="601.055" y1="588.701" x2="1117.34" y2="588.701" gradientUnits="userSpaceOnUse">
<stop stop-color="#FFFF1C"/>
<stop offset="0.98" stop-color="#00CE95"/>
</linearGradient>
<linearGradient id="paint12_linear_319_5962" x1="329.346" y1="480.678" x2="866.533" y2="480.678" gradientUnits="userSpaceOnUse">
<stop stop-color="#FFFF1C"/>
<stop offset="0.98" stop-color="#00CE95"/>
</linearGradient>
<clipPath id="clip0_319_5962">
<rect width="1137" height="863" fill="white" transform="translate(0 0.480469)"/>
</clipPath>
</defs>
</svg>
