<svg width="14" height="19" viewBox="0 0 14 19" fill="none" xmlns="http://www.w3.org/2000/svg">
<path d="M13.1303 5.57223C13.0589 4.7428 12.4962 4.01268 11.6964 3.713C11.1856 3.52131 11.0704 3.05276 11.0476 2.91567C11.1601 2.79119 11.7336 2.64119 12.2658 2.6007C12.3828 2.59202 12.4835 2.51581 12.5244 2.40602C12.5652 2.29592 12.5382 2.17236 12.4553 2.08954C10.8235 0.457721 7.00039 0.498217 6.85461 0.502119C6.67674 0.49551 2.49276 0.379119 1.1828 3.35483C1.1462 3.41933 0.313788 4.97375 1.44859 8.65828L1.44437 10.1347C1.44437 12.1835 1.64565 14.2704 3.1053 15.6566C3.33776 15.8774 3.58826 16.0748 3.84414 16.2604V18.2001C3.84414 18.3659 3.97821 18.5 4.14409 18.5C4.30966 18.5 4.44405 18.3659 4.44405 18.2001V16.6813C4.47854 16.7044 4.51306 16.7275 4.54754 16.7503L4.82472 16.9369C4.9384 17.014 5.04938 17.0959 5.16008 17.1778C5.64033 17.533 6.13676 17.9001 6.83542 17.9001C6.83693 17.9001 6.83812 17.8998 6.83964 17.8998C6.84115 17.8998 6.84234 17.9001 6.84382 17.9001C7.54244 17.9001 8.03891 17.5329 8.51916 17.1778C8.62986 17.0959 8.74083 17.014 8.85452 16.9369L9.14281 16.7434C9.17609 16.7209 9.20998 16.6978 9.24359 16.6753V18.2001C9.24359 18.366 9.37766 18.5 9.54354 18.5C9.70911 18.5 9.8435 18.366 9.8435 18.2001V16.2605C10.0991 16.0748 10.3496 15.8774 10.5823 15.6566C12.0492 14.2639 12.2514 12.1635 12.2514 10.1009V9.24867C12.9221 7.84987 13.2194 6.61281 13.1303 5.57223ZM11.6514 9.18293V10.1008C11.6514 12.0296 11.4717 13.9845 10.1693 15.221C9.93047 15.4478 9.66412 15.6518 9.39053 15.8459C9.38364 15.8501 9.37643 15.8522 9.37014 15.8564C9.18175 15.9902 8.98919 16.1189 8.7969 16.2469L8.50925 16.4401C8.38896 16.5217 8.27137 16.6087 8.15438 16.6954C7.73473 17.0055 7.33845 17.298 6.8396 17.2998C6.34075 17.298 5.94447 17.0056 5.52482 16.6954C5.40783 16.6087 5.29025 16.5217 5.16995 16.4401L4.87808 16.2442C4.40922 15.9314 3.92478 15.6071 3.51831 15.221C2.15825 13.9303 2.04425 11.919 2.04425 10.1356L2.04875 8.60281V8.60221L2.05233 7.40115C2.05233 7.19835 2.09192 7.00188 2.16992 6.81712C2.20022 6.74481 2.23921 6.67823 2.28181 6.61524C2.2944 6.59633 2.30849 6.57924 2.32171 6.56125C2.3556 6.51685 2.39191 6.47484 2.43121 6.43554C2.44682 6.41993 2.46211 6.40373 2.47891 6.38875C2.53139 6.34196 2.58658 6.29816 2.64631 6.26037C2.65021 6.25798 2.6538 6.25496 2.6577 6.25229C2.72189 6.21239 2.79089 6.1797 2.86197 6.15091C2.88148 6.14311 2.90155 6.13681 2.92138 6.12992C2.97597 6.11041 3.03176 6.09484 3.08878 6.08222C3.11096 6.07712 3.13345 6.07203 3.15627 6.06841C3.22408 6.05702 3.29365 6.04981 3.36416 6.0477C3.37376 6.0477 3.38335 6.04591 3.39295 6.04591C3.45475 6.04559 3.51715 6.05371 3.57982 6.06092C3.60622 6.06422 3.63262 6.06331 3.65902 6.06812C3.74782 6.08313 3.83721 6.10651 3.92541 6.13832C4.38317 6.30389 5.26209 6.50128 6.8519 6.50128C8.44175 6.50128 9.32064 6.30389 9.7784 6.13832C10.4935 5.88034 11.2636 6.17791 11.5335 6.81716C11.6118 7.00196 11.6514 7.19842 11.6514 7.40118V9.18293Z" fill="#5C9BFB"/>
</svg>
