<svg width="15" height="19" viewBox="0 0 15 19" fill="none" xmlns="http://www.w3.org/2000/svg">
<path d="M14.845 10.6434L13.7407 6.50536C11.6493 0.309152 8.08965 0.494334 7.9542 0.501963C7.89318 0.503474 1.82633 0.715479 0.421851 7.62764L0.383429 7.82013C0.353831 7.97051 0.324233 8.12061 0.290064 8.271C0.0740881 9.22338 -0.492393 12.5881 1.28607 15.8988C1.34038 16.0001 1.445 16.0596 1.55481 16.0596C1.5893 16.0596 1.62438 16.0535 1.65823 16.0413C1.8007 15.99 1.88366 15.8421 1.85378 15.6938C1.85319 15.6905 1.79339 15.3433 1.98525 15.1078C2.10695 14.9577 2.32019 14.8744 2.60939 14.8507C2.78996 15.1201 2.99771 15.3748 3.24389 15.6081C3.4806 15.8329 3.73504 16.0337 3.99523 16.2225V18.1949C3.99523 18.3633 4.13159 18.5 4.30029 18.5C4.46867 18.5 4.60534 18.3633 4.60534 18.1949V16.6499C4.63919 16.6727 4.67308 16.6956 4.70693 16.7182L4.99275 16.9104C5.10837 16.9888 5.22093 17.072 5.33349 17.155C5.82186 17.5165 6.32703 17.8899 7.03718 17.8899C7.03869 17.8899 7.03992 17.8896 7.04147 17.8896C7.04302 17.8896 7.04421 17.8899 7.04572 17.8899C7.75587 17.8899 8.26105 17.5165 8.74942 17.1553C8.86198 17.072 8.97485 16.9888 9.09047 16.9104L9.38301 16.7136C9.41718 16.6907 9.45166 16.6673 9.48611 16.6444V18.1949C9.48611 18.3633 9.62247 18.5 9.79116 18.5C9.95954 18.5 10.0962 18.3633 10.0962 18.1949V16.2225C10.3561 16.0336 10.6108 15.8329 10.8476 15.6081C10.9019 15.5563 10.9513 15.502 11.0022 15.4483C11.019 15.4489 11.0352 15.4492 11.0517 15.4468C13.2096 15.1594 14.2141 13.9203 14.6766 12.931C14.9963 12.2474 15.0561 11.435 14.845 10.6434ZM11.0145 14.455C11.009 14.4635 11.0026 14.4721 10.9971 14.4806C10.9486 14.5541 10.8985 14.6264 10.8449 14.6975C10.8308 14.7158 10.815 14.7338 10.8003 14.7524C10.7527 14.8131 10.7045 14.8735 10.6527 14.9318C10.6524 14.9321 10.6521 14.9327 10.6518 14.9333C10.581 15.0129 10.5063 15.0904 10.4276 15.1655C10.1844 15.3961 9.91325 15.6038 9.63505 15.8012C9.62865 15.8052 9.62131 15.8073 9.61491 15.8116C9.42488 15.9464 9.23115 16.0754 9.03774 16.2048L8.73972 16.4049C8.61739 16.4882 8.49752 16.5767 8.37825 16.6648C7.95178 16.9799 7.54883 17.2777 7.04151 17.2795C6.53422 17.2777 6.13124 16.9799 5.70477 16.6648C5.58549 16.5767 5.46591 16.4882 5.34329 16.4049L5.0471 16.2063C4.57029 15.8876 4.07763 15.5581 3.66399 15.1655C3.41079 14.9254 3.20093 14.6601 3.02584 14.3767C3.02552 14.3761 3.02524 14.3754 3.02492 14.3748C2.93279 14.2254 2.85106 14.0698 2.77752 13.9099C2.77355 13.9014 2.76989 13.8934 2.76624 13.8855C2.24461 12.737 2.16499 11.3451 2.16499 9.99308C2.16499 8.8772 2.68387 7.80435 3.55326 7.12345C4.33663 6.50969 5.22922 6.02405 5.67274 5.79799C5.84327 6.17166 6.03882 6.50754 6.24685 6.82173C6.28742 6.88367 6.32524 6.95106 6.36735 7.01085C6.39604 7.05142 6.42775 7.08682 6.45703 7.12647C6.5583 7.26374 6.65989 7.4001 6.76665 7.52577C6.80539 7.57153 6.84687 7.61087 6.88652 7.65513C7.12721 7.92478 7.37767 8.17218 7.63664 8.38999C7.63815 8.39122 7.6397 8.39213 7.64121 8.39364C7.79039 8.51871 7.94169 8.63584 8.0939 8.74506C8.13355 8.77375 8.17384 8.79723 8.21349 8.825C8.32819 8.90402 8.44258 8.98301 8.5576 9.05377C8.57071 9.06172 8.58354 9.06843 8.59633 9.07602C9.9767 9.91613 11.3451 10.1855 11.9254 10.2657C11.9107 11.7797 11.7618 13.2979 11.0145 14.455Z" fill="#33D87F"/>
</svg>
