<svg width="40" height="34" viewBox="0 0 40 34" fill="none" xmlns="http://www.w3.org/2000/svg">
<path fill-rule="evenodd" clip-rule="evenodd" d="M35.9736 1.41791C35.9736 1.02174 35.7881 0.649297 35.4741 0.415212C35.1601 0.181126 34.7553 0.113445 34.3843 0.232998L5.76266 9.45505H2.19456C1.52026 9.45505 0.973633 10.0115 0.973633 10.6979V18.6522C0.973633 19.3386 1.52026 19.895 2.19456 19.895H5.76266L8.23501 20.6917L8.16095 20.953C7.36201 23.6732 8.78361 26.7775 11.5947 27.6592C14.2765 28.54 17.2114 26.9341 18.0197 24.0313L18.0206 24.0281L18.0682 23.86L19.7786 24.4111C20.4413 24.6246 21.1334 24.17 21.3025 23.4946C21.4553 22.8844 21.1396 22.2423 20.5409 22.0494L6.31971 17.4673C6.20053 17.4289 6.07627 17.4093 5.95127 17.4093H3.41549V11.9408H5.95127C6.07627 11.9408 6.20053 11.9212 6.31971 11.8828L33.5318 3.11493V14.4163C33.5318 14.9144 33.8996 15.3316 34.3857 15.4403C34.4501 15.4547 34.5143 15.4697 34.5783 15.4852C35.2624 15.6514 35.9736 15.1648 35.9736 14.4608V1.41791ZM10.5017 21.6613L10.5638 21.442L15.7394 23.1096L15.6726 23.3454L15.6709 23.3517C15.2266 24.9507 13.6612 25.729 12.3394 25.2917L12.3191 25.2854C10.8818 24.8379 10.0539 23.1784 10.5017 21.6613Z" fill="white"/>
<path fill-rule="evenodd" clip-rule="evenodd" d="M30.8761 17.525C31.5112 17.525 32.0261 18.0399 32.0261 18.675V24.525H37.876C38.5111 24.525 39.026 25.0399 39.026 25.675C39.026 26.3102 38.5111 26.825 37.876 26.825H32.0261V32.675C32.0261 33.3102 31.5112 33.825 30.8761 33.825C30.241 33.825 29.7261 33.3102 29.7261 32.675V26.825H23.876C23.2408 26.825 22.726 26.3102 22.726 25.675C22.726 25.0399 23.2408 24.525 23.876 24.525H29.7261V18.675C29.7261 18.0399 30.241 17.525 30.8761 17.525Z" fill="white"/>
</svg>
