<svg width="70" height="70" viewBox="0 0 70 70" fill="none" xmlns="http://www.w3.org/2000/svg">
<path d="M35 43.75V5.83337M35 5.83337L43.75 16.0417M35 5.83337L26.25 16.0417" stroke="#B1B1B1" stroke-width="3" stroke-linecap="round" stroke-linejoin="round"/>
<path d="M23.3335 64.1673H46.6668C54.9163 64.1673 59.0411 64.1673 61.604 61.6044C64.1668 59.0418 64.1668 54.9168 64.1668 46.6673V43.7506C64.1668 35.5011 64.1668 31.3764 61.604 28.8135C59.3628 26.5724 55.9272 26.2911 49.5835 26.2557M20.4168 26.2557C14.073 26.2911 10.6374 26.5724 8.39631 28.8135C5.8335 31.3764 5.8335 35.5011 5.8335 43.7506V46.6673C5.8335 54.9168 5.8335 59.0418 8.39631 61.6044C9.27073 62.4788 10.327 63.0549 11.6668 63.4346" stroke="#B1B1B1" stroke-width="3" stroke-linecap="round"/>
</svg>
