<svg width="26" height="26" viewBox="0 0 26 26" fill="none" xmlns="http://www.w3.org/2000/svg">
<path d="M20.2445 22.7447L22 24.5M15 20.5724C14.9998 19.107 16.0349 17.8455 17.4723 17.5594C18.9097 17.2733 20.349 18.0423 20.91 19.3961C21.4711 20.75 20.9975 22.3115 19.779 23.1258C18.5605 23.9401 16.9364 23.7803 15.9 22.7442C15.3238 22.1683 15.0001 21.3871 15 20.5724Z" stroke="white" stroke-width="1.5" stroke-linecap="round" stroke-linejoin="round"/>
<path fill-rule="evenodd" clip-rule="evenodd" d="M14.6674 7.10989C14.5784 7.2427 14.5309 7.39885 14.5309 7.55859C14.5309 7.66465 14.5519 7.76968 14.5925 7.86767C14.6332 7.96566 14.6929 8.05469 14.768 8.12969C14.8432 8.20469 14.9324 8.26418 15.0307 8.30476C15.1289 8.34535 15.2341 8.36624 15.3404 8.36624C15.5006 8.36624 15.6571 8.31887 15.7902 8.23012C15.9233 8.14138 16.0271 8.01524 16.0884 7.86766C16.1496 7.72009 16.1657 7.5577 16.1344 7.40103C16.1032 7.24436 16.0261 7.10045 15.9129 6.9875C15.7997 6.87455 15.6554 6.79763 15.4984 6.76647C15.3413 6.7353 15.1786 6.7513 15.0307 6.81243C14.8827 6.87355 14.7563 6.97707 14.6674 7.10989ZM10.1235 8.23012C9.9904 8.31887 9.83389 8.36624 9.67378 8.36624C9.56747 8.36624 9.4622 8.34535 9.36399 8.30476C9.26577 8.26418 9.17653 8.20469 9.10136 8.12969C9.02618 8.05469 8.96655 7.96566 8.92587 7.86767C8.88519 7.76968 8.86425 7.66465 8.86426 7.55859C8.86426 7.39885 8.91174 7.2427 9.00069 7.10989C9.08964 6.97707 9.21607 6.87355 9.36399 6.81243C9.51191 6.7513 9.67468 6.7353 9.83171 6.76647C9.98874 6.79763 10.133 6.87455 10.2462 6.9875C10.3594 7.10045 10.4365 7.24436 10.4678 7.40103C10.499 7.5577 10.483 7.72009 10.4217 7.86766C10.3604 8.01524 10.2567 8.14138 10.1235 8.23012ZM21 14.0197V9.98152C21.0003 8.82589 20.7631 7.68246 20.3032 6.62183C19.8432 5.56121 19.1702 4.60591 18.3258 3.81491L20.0617 2.20046C20.1397 2.12729 20.1854 2.0263 20.1889 1.91957C20.1924 1.81285 20.1534 1.70909 20.0804 1.63099C20.0074 1.55288 19.9064 1.5068 19.7995 1.50281C19.6925 1.49882 19.5883 1.53726 19.5097 1.60971L17.7072 3.28603C16.219 2.12936 14.3865 1.50126 12.5 1.50126C10.6135 1.50126 8.78098 2.12936 7.29279 3.28603L5.49029 1.60971C5.45146 1.57327 5.4058 1.54483 5.35593 1.52604C5.30605 1.50725 5.25295 1.49847 5.19967 1.50022C5.14639 1.50196 5.09398 1.51418 5.04544 1.53619C4.99691 1.5582 4.95321 1.58956 4.91686 1.62846C4.88051 1.66736 4.85222 1.71305 4.83361 1.76289C4.81501 1.81273 4.80646 1.86575 4.80845 1.9189C4.81044 1.97205 4.82293 2.02428 4.84521 2.0726C4.8675 2.12092 4.89912 2.16437 4.93828 2.20046L6.67423 3.81491C5.82976 4.60591 5.15678 5.56121 4.69682 6.62183C4.23687 7.68246 3.99971 8.82589 4 9.98152V14.0197C4 16.2688 4.89553 18.4258 6.48959 20.0162C8.08365 21.6065 10.2457 22.5 12.5 22.5C12.8006 22.5 13.0995 22.4841 13.3957 22.4528C13.2886 22.2005 13.2016 21.9376 13.1367 21.666C12.9257 21.6835 12.7133 21.6924 12.5 21.6924C10.4604 21.6924 8.50426 20.884 7.06201 19.4451C5.61977 18.0062 4.80952 16.0546 4.80952 14.0197V12.4045H20.1905V14.0197C20.1905 14.6582 20.1107 15.2885 19.9567 15.8974C20.2132 16.0065 20.4587 16.1365 20.6911 16.2852C20.8944 15.5538 21 14.7922 21 14.0197ZM4.80952 11.5968V9.98152C4.80952 7.94662 5.61977 5.99506 7.06201 4.55616C8.50426 3.11727 10.4604 2.30891 12.5 2.30891C14.5396 2.30891 16.4957 3.11727 17.938 4.55616C19.3802 5.99506 20.1905 7.94662 20.1905 9.98152V11.5968H4.80952Z" fill="white"/>
<path d="M14.5309 7.55859L14.7809 7.5586V7.55859H14.5309ZM14.6674 7.10989L14.4596 6.97077L14.4596 6.97077L14.6674 7.10989ZM14.5925 7.86767L14.8234 7.77181L14.8234 7.77181L14.5925 7.86767ZM14.768 8.12969L14.9446 7.95271L14.9446 7.95271L14.768 8.12969ZM15.0307 8.30476L15.1261 8.07371L15.1261 8.07371L15.0307 8.30476ZM15.3404 8.36624V8.11624H15.3404L15.3404 8.36624ZM15.7902 8.23012L15.6515 8.02211V8.02211L15.7902 8.23012ZM16.0884 7.86766L16.3192 7.96353L16.3192 7.96352L16.0884 7.86766ZM16.1344 7.40103L16.3796 7.35215L16.1344 7.40103ZM15.9129 6.9875L15.7363 7.16448V7.16448L15.9129 6.9875ZM15.4984 6.76647L15.547 6.52125H15.547L15.4984 6.76647ZM15.0307 6.81243L15.1261 7.04347V7.04347L15.0307 6.81243ZM9.67378 8.36624V8.11624H9.67377L9.67378 8.36624ZM10.1235 8.23012L10.2622 8.43814L10.1235 8.23012ZM9.36399 8.30476L9.45947 8.07371L9.45946 8.07371L9.36399 8.30476ZM9.10136 8.12969L9.27793 7.95271L9.27793 7.95271L9.10136 8.12969ZM8.92587 7.86767L8.69498 7.96352H8.69498L8.92587 7.86767ZM8.86426 7.55859L9.11426 7.5586V7.55859H8.86426ZM9.83171 6.76647L9.88038 6.52125L9.83171 6.76647ZM10.4678 7.40103L10.7129 7.35215L10.4678 7.40103ZM10.4217 7.86766L10.6526 7.96352V7.96352L10.4217 7.86766ZM21 9.98152L20.75 9.98146V9.98152H21ZM20.3032 6.62183L20.0738 6.7213L20.3032 6.62183ZM18.3258 3.81491L18.1555 3.63184L17.9594 3.81425L18.1549 3.99737L18.3258 3.81491ZM20.0617 2.20046L20.232 2.38353L20.2328 2.38274L20.0617 2.20046ZM20.0804 1.63099L19.8978 1.80167L20.0804 1.63099ZM19.7995 1.50281L19.8088 1.25298V1.25298L19.7995 1.50281ZM19.5097 1.60971L19.3403 1.42587L19.3395 1.42664L19.5097 1.60971ZM17.7072 3.28603L17.5538 3.48342L17.7217 3.61393L17.8775 3.46909L17.7072 3.28603ZM7.29279 3.28603L7.12254 3.46909L7.27828 3.61393L7.44621 3.48342L7.29279 3.28603ZM5.49029 1.60971L5.31919 1.79199L5.32003 1.79278L5.49029 1.60971ZM5.35593 1.52604L5.26778 1.75999L5.35593 1.52604ZM5.19967 1.50022L5.1915 1.25035L5.19967 1.50022ZM5.04544 1.53619L4.9422 1.30851L4.9422 1.30851L5.04544 1.53619ZM4.91686 1.62846L4.7342 1.45777L4.7342 1.45777L4.91686 1.62846ZM4.83361 1.76289L4.5994 1.67546L4.5994 1.67546L4.83361 1.76289ZM4.80845 1.9189L4.55862 1.92826V1.92826L4.80845 1.9189ZM4.84521 2.0726L5.07224 1.96791L5.07224 1.96791L4.84521 2.0726ZM4.93828 2.20046L5.10854 2.01739L5.1077 2.01662L4.93828 2.20046ZM6.67423 3.81491L6.84514 3.99737L7.04063 3.81426L6.84449 3.63184L6.67423 3.81491ZM4.69682 6.62183L4.92618 6.7213L4.69682 6.62183ZM4 9.98152H4.25L4.25 9.98146L4 9.98152ZM6.48959 20.0162L6.66616 19.8392L6.48959 20.0162ZM13.3957 22.4528L13.422 22.7014L13.7578 22.6659L13.6258 22.3551L13.3957 22.4528ZM13.1367 21.666L13.3798 21.608L13.33 21.3992L13.116 21.4169L13.1367 21.666ZM7.06201 19.4451L6.88544 19.6221L7.06201 19.4451ZM4.80952 12.4045V12.1545H4.55952V12.4045H4.80952ZM20.1905 12.4045H20.4405V12.1545H20.1905V12.4045ZM19.9567 15.8974L19.7143 15.836L19.6618 16.0436L19.8588 16.1274L19.9567 15.8974ZM20.6911 16.2852L20.5564 16.4958L20.8414 16.6782L20.932 16.3522L20.6911 16.2852ZM4.80952 11.5968H4.55952V11.8468H4.80952V11.5968ZM7.06201 4.55616L6.88544 4.37918L7.06201 4.55616ZM17.938 4.55616L17.7614 4.73315L17.938 4.55616ZM20.1905 11.5968V11.8468H20.4405V11.5968H20.1905ZM14.7809 7.55859C14.7809 7.44843 14.8137 7.34069 14.8751 7.249L14.4596 6.97077C14.3431 7.14472 14.2809 7.34928 14.2809 7.55859H14.7809ZM14.8234 7.77181C14.7954 7.70419 14.7809 7.63175 14.7809 7.5586L14.2809 7.55858C14.2809 7.69756 14.3084 7.83516 14.3616 7.96353L14.8234 7.77181ZM14.9446 7.95271C14.8927 7.9009 14.8515 7.83942 14.8234 7.77181L14.3616 7.96352C14.4149 8.09189 14.493 8.20848 14.5915 8.30667L14.9446 7.95271ZM15.1261 8.07371C15.0582 8.04564 14.9965 8.00452 14.9446 7.95271L14.5914 8.30667C14.6899 8.40486 14.8067 8.48271 14.9352 8.53581L15.1261 8.07371ZM15.3404 8.11624C15.2669 8.11624 15.1941 8.10178 15.1261 8.07371L14.9352 8.53581C15.0637 8.58892 15.2014 8.61624 15.3405 8.61624L15.3404 8.11624ZM15.6515 8.02211C15.5595 8.08346 15.4512 8.11624 15.3404 8.11624V8.61624C15.5499 8.61624 15.7546 8.55428 15.9289 8.43814L15.6515 8.02211ZM15.8575 7.7718C15.8152 7.87363 15.7435 7.96076 15.6515 8.02211L15.9289 8.43814C16.1031 8.32199 16.239 8.15685 16.3192 7.96353L15.8575 7.7718ZM15.8892 7.44991C15.9108 7.55797 15.8997 7.66998 15.8575 7.7718L16.3192 7.96352C16.3995 7.77019 16.4205 7.55742 16.3796 7.35215L15.8892 7.44991ZM15.7363 7.16448C15.8145 7.24251 15.8677 7.34185 15.8892 7.44991L16.3796 7.35215C16.3387 7.14687 16.2377 6.9584 16.0894 6.81052L15.7363 7.16448ZM15.4497 7.01168C15.5584 7.03325 15.6581 7.08645 15.7363 7.16448L16.0894 6.81052C15.9412 6.66265 15.7525 6.56201 15.547 6.52125L15.4497 7.01168ZM15.1261 7.04347C15.2284 7.00119 15.3411 6.99012 15.4497 7.01168L15.547 6.52125C15.3416 6.48048 15.1287 6.5014 14.9352 6.58138L15.1261 7.04347ZM14.8751 7.249C14.9365 7.15731 15.0238 7.08575 15.1261 7.04347L14.9352 6.58138C14.7416 6.66136 14.5761 6.79683 14.4596 6.97077L14.8751 7.249ZM9.67378 8.61624C9.88321 8.61624 10.088 8.55428 10.2622 8.43814L9.98486 8.02211C9.89283 8.08345 9.78457 8.11624 9.67378 8.11624V8.61624ZM9.26851 8.53581C9.39702 8.58892 9.53473 8.61624 9.67379 8.61624L9.67377 8.11624C9.60022 8.11624 9.52739 8.10178 9.45947 8.07371L9.26851 8.53581ZM8.92478 8.30667C9.0232 8.40486 9.14 8.48271 9.26851 8.53581L9.45946 8.07371C9.39154 8.04564 9.32986 8.00452 9.27793 7.95271L8.92478 8.30667ZM8.69498 7.96352C8.74827 8.09189 8.82637 8.20848 8.92478 8.30667L9.27793 7.95271C9.226 7.9009 9.18484 7.83942 9.15676 7.77181L8.69498 7.96352ZM8.61426 7.55858C8.61425 7.69756 8.64169 7.83516 8.69498 7.96352L9.15677 7.77181C9.12869 7.7042 9.11426 7.63175 9.11426 7.5586L8.61426 7.55858ZM8.79297 6.97077C8.67647 7.14472 8.61426 7.34928 8.61426 7.55859H9.11426C9.11426 7.44843 9.147 7.34069 9.20841 7.249L8.79297 6.97077ZM9.26851 6.58138C9.07497 6.66136 8.90946 6.79684 8.79297 6.97077L9.20841 7.249C9.26982 7.15731 9.35717 7.08575 9.45947 7.04347L9.26851 6.58138ZM9.88038 6.52125C9.67496 6.48048 9.46204 6.5014 9.26851 6.58138L9.45947 7.04347C9.56178 7.00119 9.6744 6.99012 9.78305 7.01168L9.88038 6.52125ZM10.4228 6.81052C10.2746 6.66265 10.0858 6.56201 9.88038 6.52125L9.78305 7.01168C9.8917 7.03325 9.99142 7.08645 10.0696 7.16448L10.4228 6.81052ZM10.7129 7.35215C10.672 7.14687 10.571 6.9584 10.4228 6.81052L10.0696 7.16448C10.1478 7.24251 10.201 7.34185 10.2226 7.44991L10.7129 7.35215ZM10.6526 7.96352C10.7328 7.77019 10.7539 7.55742 10.7129 7.35215L10.2226 7.44991C10.2441 7.55797 10.2331 7.66998 10.1908 7.7718L10.6526 7.96352ZM10.2622 8.43814C10.4364 8.32199 10.5723 8.15685 10.6526 7.96352L10.1908 7.7718C10.1485 7.87363 10.0769 7.96076 9.98486 8.02211L10.2622 8.43814ZM20.75 9.98152V14.0197H21.25V9.98152H20.75ZM20.0738 6.7213C20.5202 7.75052 20.7503 8.86008 20.75 9.98146L21.25 9.98158C21.2503 8.7917 21.0061 7.61439 20.5325 6.52237L20.0738 6.7213ZM18.1549 3.99737C18.9744 4.76501 19.6275 5.69207 20.0738 6.7213L20.5325 6.52237C20.059 5.43034 19.3661 4.4468 18.4967 3.63245L18.1549 3.99737ZM19.8915 2.01739L18.1555 3.63184L18.496 3.99798L20.232 2.38353L19.8915 2.01739ZM19.939 1.91137C19.9377 1.95183 19.9204 1.99025 19.8906 2.01818L20.2328 2.38274C20.359 2.26432 20.4331 2.10076 20.4388 1.92778L19.939 1.91137ZM19.8978 1.80167C19.9256 1.83146 19.9404 1.87091 19.939 1.91137L20.4388 1.92778C20.4445 1.7548 20.3812 1.58672 20.2631 1.4603L19.8978 1.80167ZM19.7902 1.75264C19.8312 1.75417 19.8699 1.77187 19.8978 1.80167L20.2631 1.4603C20.145 1.3339 19.9816 1.25942 19.8088 1.25298L19.7902 1.75264ZM19.6791 1.79355C19.7092 1.76588 19.7491 1.7511 19.7902 1.75264L19.8088 1.25298C19.636 1.24654 19.4675 1.30864 19.3403 1.42587L19.6791 1.79355ZM17.8775 3.46909L19.68 1.79278L19.3395 1.42664L17.537 3.10296L17.8775 3.46909ZM12.5 1.75126C14.331 1.75126 16.1095 2.36088 17.5538 3.48342L17.8606 3.08864C16.3285 1.89784 14.442 1.25126 12.5 1.25126V1.75126ZM7.44621 3.48342C8.89049 2.36088 10.669 1.75126 12.5 1.75126V1.25126C10.558 1.25126 8.67148 1.89784 7.13938 3.08864L7.44621 3.48342ZM5.32003 1.79278L7.12254 3.46909L7.46305 3.10296L5.66054 1.42664L5.32003 1.79278ZM5.26778 1.75999C5.2869 1.76719 5.30436 1.77807 5.31919 1.79199L5.66139 1.42743C5.59856 1.36846 5.5247 1.32247 5.44407 1.2921L5.26778 1.75999ZM5.20784 1.75008C5.22829 1.74941 5.24867 1.75278 5.26778 1.75999L5.44407 1.2921C5.36344 1.26172 5.27761 1.24753 5.1915 1.25035L5.20784 1.75008ZM5.14869 1.76388C5.16728 1.75544 5.18739 1.75075 5.20784 1.75008L5.1915 1.25035C5.10539 1.25317 5.02067 1.27292 4.9422 1.30851L5.14869 1.76388ZM5.09953 1.79914C5.1134 1.7843 5.1301 1.77231 5.14869 1.76388L4.9422 1.30851C4.86373 1.34409 4.79303 1.39481 4.7342 1.45777L5.09953 1.79914ZM5.06783 1.85032C5.0749 1.83138 5.08566 1.81398 5.09953 1.79914L4.7342 1.45777C4.67536 1.52074 4.62954 1.59471 4.5994 1.67546L5.06783 1.85032ZM5.05827 1.90954C5.05752 1.88938 5.06076 1.86925 5.06783 1.85032L4.5994 1.67546C4.56926 1.75621 4.5554 1.84212 4.55862 1.92826L5.05827 1.90954ZM5.07224 1.96791C5.06377 1.94954 5.05903 1.92971 5.05827 1.90954L4.55862 1.92826C4.56185 2.01439 4.5821 2.09902 4.61819 2.17729L5.07224 1.96791ZM5.1077 2.01662C5.09275 2.00284 5.08071 1.98628 5.07224 1.96791L4.61819 2.17729C4.65428 2.25556 4.7055 2.3259 4.76887 2.3843L5.1077 2.01662ZM6.84449 3.63184L5.10854 2.01739L4.76803 2.38353L6.50398 3.99798L6.84449 3.63184ZM4.92618 6.7213C5.37252 5.69207 6.0256 4.76501 6.84514 3.99737L6.50333 3.63245C5.63393 4.4468 4.94103 5.43034 4.46746 6.52237L4.92618 6.7213ZM4.25 9.98146C4.24972 8.86008 4.47985 7.75052 4.92618 6.7213L4.46746 6.52237C3.99389 7.61439 3.74971 8.7917 3.75 9.98158L4.25 9.98146ZM4.25 14.0197V9.98152H3.75V14.0197H4.25ZM6.66616 19.8392C5.11905 18.2957 4.25 16.2024 4.25 14.0197H3.75C3.75 16.3353 4.67201 18.556 6.31302 20.1932L6.66616 19.8392ZM12.5 22.25C10.3118 22.25 8.21329 21.3827 6.66616 19.8392L6.31302 20.1932C7.95401 21.8303 10.1795 22.75 12.5 22.75V22.25ZM13.3694 22.2042C13.082 22.2346 12.7918 22.25 12.5 22.25V22.75C12.8094 22.75 13.1171 22.7336 13.422 22.7014L13.3694 22.2042ZM13.6258 22.3551C13.5241 22.1155 13.4414 21.8658 13.3798 21.608L12.8935 21.7241C12.9617 22.0093 13.0531 22.2855 13.1656 22.5505L13.6258 22.3551ZM12.5 21.9424C12.7202 21.9424 12.9395 21.9332 13.1573 21.9152L13.116 21.4169C12.9119 21.4338 12.7064 21.4424 12.5 21.4424V21.9424ZM6.88544 19.6221C8.37461 21.1078 10.3942 21.9424 12.5 21.9424V21.4424C10.5265 21.4424 8.6339 20.6602 7.23858 19.2681L6.88544 19.6221ZM4.55952 14.0197C4.55952 16.1211 5.39625 18.1363 6.88544 19.6221L7.23858 19.2681C5.84329 17.8761 5.05952 15.9882 5.05952 14.0197H4.55952ZM4.55952 12.4045V14.0197H5.05952V12.4045H4.55952ZM20.1905 12.1545H4.80952V12.6545H20.1905V12.1545ZM20.4405 14.0197V12.4045H19.9405V14.0197H20.4405ZM20.199 15.9587C20.3581 15.33 20.4405 14.6791 20.4405 14.0197H19.9405C19.9405 14.6374 19.8633 15.2471 19.7143 15.836L20.199 15.9587ZM19.8588 16.1274C20.1024 16.2311 20.3356 16.3546 20.5564 16.4958L20.8258 16.0747C20.5818 15.9185 20.324 15.782 20.0546 15.6673L19.8588 16.1274ZM20.75 14.0197C20.75 14.7694 20.6475 15.5084 20.4502 16.2183L20.932 16.3522C21.1412 15.5991 21.25 14.815 21.25 14.0197H20.75ZM4.55952 9.98152V11.5968H5.05952V9.98152H4.55952ZM6.88544 4.37918C5.39625 5.86492 4.55952 7.88013 4.55952 9.98152H5.05952C5.05952 8.01311 5.84329 6.1252 7.23858 4.73315L6.88544 4.37918ZM12.5 2.05891C10.3942 2.05891 8.37461 2.89347 6.88544 4.37918L7.23858 4.73315C8.6339 3.34107 10.5265 2.55891 12.5 2.55891V2.05891ZM18.1146 4.37918C16.6254 2.89347 14.6058 2.05891 12.5 2.05891V2.55891C14.4735 2.55891 16.3661 3.34107 17.7614 4.73315L18.1146 4.37918ZM20.4405 9.98152C20.4405 7.88013 19.6038 5.86492 18.1146 4.37918L17.7614 4.73315C19.1567 6.1252 19.9405 8.01311 19.9405 9.98152H20.4405ZM20.4405 11.5968V9.98152H19.9405V11.5968H20.4405ZM4.80952 11.8468H20.1905V11.3468H4.80952V11.8468Z" fill="white"/>
</svg>
