<svg width="24" height="22" viewBox="0 0 24 22" fill="none" xmlns="http://www.w3.org/2000/svg">
<path d="M13.1379 21H18.069C21.0276 21 23 19.005 23 16.0125V11.025C23 8.3317 21.3234 6.33669 18.8579 6.03744M18.8579 6.03744C18.6607 6.03744 18.3648 6.03744 18.069 6.03744H8.2069C7.91103 6.03744 7.71379 6.03742 7.41793 6.13717M18.8579 6.03744C18.7593 5.23944 18.4634 4.44138 17.8717 3.84288L16.0965 2.04738C14.7159 0.650874 12.5462 0.650874 11.1655 2.04738L8.00961 5.33913C7.71375 5.63838 7.51655 5.83792 7.41793 6.13717M7.41793 6.13717C4.85379 6.43643 3.27586 8.3317 3.27586 11.025C3.27586 11.3242 3.27586 11.7232 3.27586 12.0225M23 11.5237H20.0414C18.9566 11.5237 18.069 12.4215 18.069 13.5187C18.069 14.616 18.9566 15.5137 20.0414 15.5137H23M1 16.9858L4.64138 21L11.9241 13.7631M11.9241 13.7631H8.28276M11.9241 13.7631V17.4462" stroke="white" stroke-width="1.5" stroke-linecap="round" stroke-linejoin="round"/>
</svg>
