<svg width="11" height="10" viewBox="0 0 11 10" fill="none" xmlns="http://www.w3.org/2000/svg">
<path fill-rule="evenodd" clip-rule="evenodd" d="M5.66667 0.833008C5.66667 0.487833 5.38684 0.208008 5.04167 0.208008H0.874999C0.529833 0.208008 0.249999 0.487833 0.249999 0.833008C0.249999 1.17818 0.529833 1.45801 0.874999 1.45801H5.04167C5.38684 1.45801 5.66667 1.17818 5.66667 0.833008ZM8.33333 4.99967C8.33333 4.65451 8.05351 4.37467 7.70833 4.37467H0.874999C0.529833 4.37467 0.249999 4.65451 0.249999 4.99967C0.249999 5.34484 0.529833 5.62467 0.874999 5.62467H7.70833C8.05351 5.62467 8.33333 5.34484 8.33333 4.99967ZM11 9.16634C11 8.82117 10.7202 8.54134 10.375 8.54134H0.874999C0.529833 8.54134 0.249999 8.82117 0.249999 9.16634C0.249999 9.51151 0.529833 9.79134 0.874999 9.79134H10.375C10.7202 9.79134 11 9.51151 11 9.16634Z" fill="#262626"/>
</svg>
