<svg width="19" height="20" viewBox="0 0 19 20" fill="none" xmlns="http://www.w3.org/2000/svg">
<path d="M6.26712 5.54201H12.6588C13.1921 5.54201 13.6255 5.97534 13.6255 6.50868V7.57534C13.6255 7.96701 13.3838 8.45033 13.1421 8.69199L11.0588 10.5337C10.7671 10.7753 10.5755 11.2587 10.5755 11.6503V13.7337C10.5755 14.0253 10.3838 14.4087 10.1421 14.5587L9.46712 14.9837C8.83379 15.3753 7.96712 14.9337 7.96712 14.1587V11.592C7.96712 11.2503 7.77546 10.817 7.57546 10.5753L5.73379 8.63366C5.49212 8.40033 5.30046 7.95868 5.30046 7.66701V6.55868C5.30046 5.97534 5.73379 5.54201 6.26712 5.54201Z" stroke="#262626" stroke-width="1.5" stroke-linecap="round" stroke-linejoin="round"/>
<path d="M6.96712 18.3337H11.9671C16.1338 18.3337 17.8005 16.667 17.8005 12.5003V7.50033C17.8005 3.33366 16.1338 1.66699 11.9671 1.66699H6.96712C2.80046 1.66699 1.13379 3.33366 1.13379 7.50033V12.5003C1.13379 16.667 2.80046 18.3337 6.96712 18.3337Z" stroke="#262626" stroke-width="1.5" stroke-linecap="round" stroke-linejoin="round"/>
</svg>
