<svg width="24" height="24" viewBox="0 0 24 24" fill="none" xmlns="http://www.w3.org/2000/svg">
<circle cx="12" cy="12" r="11" fill="#FF9900" stroke="white" stroke-width="2"/>
<path d="M14.829 6.76604C15.5809 7.46501 16 8.40462 16 9.40151C16 10.3984 15.5809 11.3266 14.829 12.037C14.2989 12.5297 13.6333 12.8735 12.9183 13.0224V13.412C12.9183 13.8818 12.4992 14.2714 11.9938 14.2714C11.4884 14.2714 11.0693 13.8818 11.0693 13.412V12.2662C11.0693 11.7964 11.4884 11.4068 11.9938 11.4068C12.5732 11.4068 13.1156 11.2005 13.5223 10.8224C13.9291 10.4442 14.151 9.94007 14.151 9.40151C14.151 8.86296 13.9291 8.35878 13.5223 7.98065C12.7088 7.22438 11.2912 7.22438 10.4777 7.98065C10.0709 8.35878 9.849 8.86296 9.849 9.40151C9.849 9.87131 9.42989 10.2609 8.9245 10.2609C8.41911 10.2609 8 9.87131 8 9.40151C8 8.40462 8.41911 7.47647 9.17103 6.76604C10.6872 5.35663 13.3251 5.35663 14.8413 6.76604H14.829ZM13.2265 16.5631C13.2265 17.1933 12.6718 17.709 11.9938 17.709C11.3159 17.709 10.7612 17.1933 10.7612 16.5631C10.7612 15.9329 11.3159 15.4173 11.9938 15.4173C12.6718 15.4173 13.2265 15.9329 13.2265 16.5631Z" fill="white"/>
</svg>
