<svg width="94" height="94" viewBox="0 0 94 94" fill="none" xmlns="http://www.w3.org/2000/svg">
<rect x="2" y="2" width="90" height="90" rx="45" stroke="url(#paint0_linear_319_1794)" stroke-width="3" stroke-linejoin="round"/>
<path d="M65 37.5708V31.7439C65 31.5466 64.9223 31.3574 64.7839 31.2179C64.6456 31.0784 64.458 31 64.2623 31H36.7166C36.521 31 36.3333 31.0784 36.195 31.2179C36.0567 31.3574 35.9789 31.5466 35.9789 31.7439V36.8269C35.9789 37.0242 36.0567 37.2134 36.195 37.3529C36.3333 37.4924 36.521 37.5708 36.7166 37.5708H60.0386M47.0501 42.2149H36.7166C36.521 42.2149 36.3333 42.2933 36.195 42.4328C36.0567 42.5723 35.9789 42.7615 35.9789 42.9588V48.0418C35.9789 48.2391 36.0567 48.4283 36.195 48.5678C36.3333 48.7073 36.521 48.7857 36.7166 48.7857H46.5147M47.0501 53.4292H36.7166C36.521 53.4292 36.3333 53.5076 36.195 53.6471C36.0567 53.7866 35.9789 53.9758 35.9789 54.1731V59.2561C35.9789 59.4534 36.0567 59.6426 36.195 59.7821C36.3333 59.9216 36.521 60 36.7166 60H46.5147M25.7377 31.0006H30.7778C31.1852 31.0006 31.5154 31.3337 31.5154 31.7445V36.8269C31.5154 37.2377 31.1852 37.5708 30.7778 37.5708H25.7377C25.3303 37.5708 25 37.2377 25 36.8269V31.7445C25 31.3337 25.3303 31.0006 25.7377 31.0006ZM25.7377 42.2149H30.7778C31.1852 42.2149 31.5154 42.548 31.5154 42.9588V48.0412C31.5154 48.452 31.1852 48.7851 30.7778 48.7851H25.7377C25.3303 48.7851 25 48.452 25 48.0412V42.9588C25 42.548 25.3303 42.2149 25.7377 42.2149ZM25.7377 53.4299H30.7778C31.1852 53.4299 31.5154 53.7629 31.5154 54.1737V59.2561C31.5154 59.667 31.1852 60 30.7778 60H25.7377C25.3303 60 25 59.667 25 59.2561V54.1737C25 53.7629 25.3303 53.4299 25.7377 53.4299Z" stroke="#262626" stroke-width="2" stroke-miterlimit="10" stroke-linecap="round"/>
<path d="M68.9952 70C69.1616 70 69.3286 69.9581 69.48 69.8737C69.8009 69.6954 70 69.3546 70 68.9847V42.0153C70 41.4544 69.5503 41 68.9952 41H51.0048C50.4497 41 50 41.4544 50 42.0153V68.9847C50 69.3546 50.1991 69.6954 50.52 69.8737C50.8409 70.052 51.2322 70.0406 51.5418 69.8426L60 64.4392L68.4582 69.8433C68.6221 69.9473 68.8086 70 68.9952 70ZM67.9903 67.1412L60.537 62.3794C60.373 62.2747 60.1865 62.222 60 62.222C59.8135 62.222 59.627 62.2747 59.463 62.3794L52.0097 67.1412V43.0306H67.991L67.9903 67.1412Z" fill="#262626"/>
<path d="M57.7504 57.0135C57.9464 57.2114 58.2039 57.3111 58.4607 57.3111C58.7176 57.3111 58.9751 57.2121 59.171 57.0135L65.2082 50.9133C65.6007 50.5167 65.6007 49.8739 65.2082 49.4773C64.8157 49.0807 64.1795 49.0807 63.787 49.4773L58.4607 54.8591L56.213 52.5879C55.8205 52.1913 55.1843 52.1913 54.7918 52.5879C54.3993 52.9846 54.3993 53.6274 54.7918 54.024L57.7504 57.0135Z" fill="#262626"/>
<defs>
<linearGradient id="paint0_linear_319_1794" x1="3.9062" y1="58.8133" x2="94.7964" y2="58.1751" gradientUnits="userSpaceOnUse">
<stop stop-color="#00CC5E"/>
<stop offset="1" stop-color="#0066FF"/>
</linearGradient>
</defs>
</svg>
