<svg width="28" height="28" viewBox="0 0 28 28" fill="none" xmlns="http://www.w3.org/2000/svg">
<circle cx="14" cy="14" r="14" fill="url(#paint0_linear_2_1871)"/>
<g clip-path="url(#clip0_2_1871)">
<path d="M15.5733 8.71915L16.1912 8.10123C17.215 7.07742 18.8749 7.07742 19.8987 8.10123C20.9225 9.12503 20.9225 10.7849 19.8987 11.8087L19.2808 12.4267M15.5733 8.71915C15.5733 8.71915 15.6505 10.0322 16.8091 11.1908C17.9677 12.3494 19.2808 12.4267 19.2808 12.4267M15.5733 8.71915L9.89247 14.4C9.50769 14.7848 9.3153 14.9771 9.14985 15.1892C8.95467 15.4395 8.78735 15.7102 8.65081 15.9967C8.53507 16.2396 8.44904 16.4977 8.27696 17.0139L7.54779 19.2014M19.2808 12.4267L13.6 18.1075C13.2152 18.4922 13.0229 18.6846 12.8107 18.8501C12.5605 19.0453 12.2897 19.2126 12.0032 19.3492C11.7604 19.4649 11.5023 19.5509 10.986 19.723L8.79853 20.4522M7.54779 19.2014L7.36955 19.7362C7.28487 19.9902 7.35098 20.2702 7.54034 20.4596C7.72969 20.649 8.00977 20.7151 8.26381 20.6304L8.79853 20.4522M7.54779 19.2014L8.79853 20.4522" stroke="white" stroke-width="1.5" stroke-linecap="round" stroke-linejoin="round"/>
</g>
<defs>
<linearGradient id="paint0_linear_2_1871" x1="0" y1="14" x2="28" y2="14" gradientUnits="userSpaceOnUse">
<stop stop-color="#00CC5E"/>
<stop offset="1" stop-color="#00B3FF"/>
</linearGradient>
<clipPath id="clip0_2_1871">
<rect width="16" height="16" fill="white" transform="translate(6 6)"/>
</clipPath>
</defs>
</svg>
