<svg width="18" height="22" viewBox="0 0 18 22" fill="none" xmlns="http://www.w3.org/2000/svg">
<path d="M15.4998 17.9575V1.50283C15.5011 1.40969 15.455 1.32262 15.3781 1.27295C15.3014 1.22341 15.2051 1.21843 15.1239 1.25996L13.0355 2.35285C12.9523 2.39645 12.8527 2.39001 12.7755 2.33585L11.0949 1.16282C11.0079 1.10198 10.8935 1.10198 10.8065 1.16282L9.14478 2.32249C9.05779 2.38333 8.94339 2.38333 8.8564 2.32249L7.19467 1.16282C7.10769 1.10198 6.99328 1.10198 6.9063 1.16282L5.22448 2.33099C5.14824 2.38661 5.04849 2.39511 4.96446 2.35285L2.87608 1.25996C2.7949 1.21843 2.69855 1.22341 2.62179 1.27295C2.54504 1.32262 2.49898 1.40969 2.50024 1.50283V16.9575C2.48771 17.5848 2.97229 18.1039 3.58284 18.1172H7" stroke="white" stroke-width="1.5" stroke-linecap="round" stroke-linejoin="round"/>
<path d="M11.0769 19.0686V20.31L11.9373 19.4152L12.8756 18.4395L12.8756 18.4395C12.8923 18.4221 12.909 18.4172 12.9231 18.4172C12.9372 18.4172 12.9539 18.4221 12.9706 18.4395C12.9883 18.4579 13 18.4848 13 18.5172C13 18.5496 12.9883 18.5765 12.9706 18.5949L11.0475 20.5949C11.0308 20.6123 11.0141 20.6172 11 20.6172C10.9859 20.6172 10.9692 20.6123 10.9525 20.5949L9.0294 18.5949C9.01175 18.5765 9 18.5496 9 18.5172C9 18.4848 9.01175 18.4579 9.0294 18.4395C9.0461 18.4221 9.06283 18.4172 9.07691 18.4172C9.09099 18.4172 9.10772 18.4221 9.12442 18.4395L9.12443 18.4395L10.0627 19.4152L10.9231 20.31V19.0686V14.7172C10.9231 14.6433 10.9758 14.6172 11 14.6172C11.0242 14.6172 11.0769 14.6433 11.0769 14.7172V19.0686Z" stroke="white"/>
<path d="M5.5 6.98047L11.5 6.98047" stroke="white" stroke-width="1.5" stroke-miterlimit="10" stroke-linecap="round" stroke-linejoin="round"/>
<path d="M5.5 9.98047L10.5 9.98047" stroke="white" stroke-width="1.5" stroke-miterlimit="10" stroke-linecap="round" stroke-linejoin="round"/>
<path d="M5.5 12.9805L8.5 12.9805" stroke="white" stroke-width="1.5" stroke-miterlimit="10" stroke-linecap="round" stroke-linejoin="round"/>
</svg>
