<svg width="94" height="94" viewBox="0 0 94 94" fill="none" xmlns="http://www.w3.org/2000/svg">
<rect x="1.6665" y="2" width="90" height="90" rx="45" stroke="url(#paint0_linear_319_1810)" stroke-width="3" stroke-linejoin="round"/>
<path d="M67.6665 36.5708V30.7439C67.6665 30.5466 67.5888 30.3574 67.4504 30.2179C67.3121 30.0784 67.1245 30 66.9288 30H39.3831C39.1875 30 38.9998 30.0784 38.8615 30.2179C38.7232 30.3574 38.6455 30.5466 38.6455 30.7439V35.8269C38.6455 36.0242 38.7232 36.2134 38.8615 36.3529C38.9998 36.4924 39.1875 36.5708 39.3831 36.5708H62.7051M49.7166 41.2149H39.3831C39.1875 41.2149 38.9998 41.2933 38.8615 41.4328C38.7232 41.5723 38.6455 41.7615 38.6455 41.9588V47.0418C38.6455 47.2391 38.7232 47.4283 38.8615 47.5678C38.9998 47.7073 39.1875 47.7857 39.3831 47.7857H49.1812M49.7166 52.4292H39.3831C39.1875 52.4292 38.9998 52.5076 38.8615 52.6471C38.7232 52.7866 38.6455 52.9758 38.6455 53.1731V58.2561C38.6455 58.4534 38.7232 58.6426 38.8615 58.7821C38.9998 58.9216 39.1875 59 39.3831 59H49.1812M28.4042 30.0006H33.4443C33.8517 30.0006 34.182 30.3337 34.182 30.7445V35.8269C34.182 36.2377 33.8517 36.5708 33.4443 36.5708H28.4042C27.9968 36.5708 27.6665 36.2377 27.6665 35.8269V30.7445C27.6665 30.3337 27.9968 30.0006 28.4042 30.0006ZM28.4042 41.2149H33.4443C33.8517 41.2149 34.182 41.548 34.182 41.9588V47.0412C34.182 47.452 33.8517 47.7851 33.4443 47.7851H28.4042C27.9968 47.7851 27.6665 47.452 27.6665 47.0412V41.9588C27.6665 41.548 27.9968 41.2149 28.4042 41.2149ZM28.4042 52.4299H33.4443C33.8517 52.4299 34.182 52.7629 34.182 53.1737V58.2561C34.182 58.667 33.8517 59 33.4443 59H28.4042C27.9968 59 27.6665 58.667 27.6665 58.2561V53.1737C27.6665 52.7629 27.9968 52.4299 28.4042 52.4299Z" stroke="#262626" stroke-width="2" stroke-miterlimit="10" stroke-linecap="round"/>
<path d="M61.6665 54L57.9694 57.6611C54.3163 61.2787 52.4897 63.0875 53.0011 64.6481C53.045 64.7822 53.0996 64.9127 53.1643 65.0384C53.9171 66.5 56.5002 66.5 61.6665 66.5C66.8328 66.5 69.4159 66.5 70.1686 65.0384C70.2334 64.9127 70.288 64.7822 70.3319 64.6481C70.6196 63.77 70.1671 62.8132 69.0656 61.5M61.6665 54L65.3636 57.6611M61.6665 54L65.3636 50.3388C69.0168 46.7212 70.8433 44.9125 70.3319 43.3519C70.288 43.2177 70.2334 43.0872 70.1686 42.9616C69.4159 41.5 66.8328 41.5 61.6665 41.5C56.5002 41.5 53.9171 41.5 53.1643 42.9616C53.0996 43.0872 53.045 43.2177 53.0011 43.3519C52.7133 44.23 53.1658 45.1867 54.2674 46.5M61.6665 54L57.9694 50.3388M59.1665 45.875H64.1665M59.1665 62.125H64.1665" stroke="#262626" stroke-width="2" stroke-miterlimit="10" stroke-linecap="round"/>
<defs>
<linearGradient id="paint0_linear_319_1810" x1="3.57271" y1="58.8133" x2="94.4629" y2="58.1751" gradientUnits="userSpaceOnUse">
<stop stop-color="#00CC5E"/>
<stop offset="1" stop-color="#0066FF"/>
</linearGradient>
</defs>
</svg>
