<svg width="94" height="94" viewBox="0 0 94 94" fill="none" xmlns="http://www.w3.org/2000/svg">
<rect x="2.33301" y="2" width="90" height="90" rx="45" stroke="url(#paint0_linear_319_1822)" stroke-width="3" stroke-linejoin="round"/>
<path d="M49.5292 50.504C51.9968 50.504 54.3632 49.5238 56.108 47.779C57.8528 46.0342 58.833 43.6678 58.833 41.2003C58.833 38.7327 57.8528 36.3663 56.108 34.6215C54.3632 32.8767 51.9968 31.8965 49.5292 31.8965H36.833C36.2807 31.8965 35.833 32.3442 35.833 32.8965V33.7105C35.833 34.2628 36.2807 34.7105 36.833 34.7105H39.3455V47.69H36.833C36.2807 47.69 35.833 48.1377 35.833 48.69V49.504C35.833 50.0563 36.2807 50.504 36.833 50.504H39.3455V54.3645H36.833C36.2807 54.3645 35.833 54.8122 35.833 55.3645V56.1785C35.833 56.7307 36.2807 57.1785 36.833 57.1785H39.3455V62.103H42.1595V57.1785H49.6065C50.1588 57.1785 50.6065 56.7307 50.6065 56.1785V55.3645C50.6065 54.8122 50.1588 54.3645 49.6065 54.3645H42.1595V50.504H49.5292ZM42.1595 34.7105H49.5292C50.3815 34.7105 51.2254 34.8783 52.0128 35.2045C52.8001 35.5306 53.5156 36.0087 54.1182 36.6113C54.7208 37.2139 55.1989 37.9293 55.525 38.7167C55.8512 39.5041 56.019 40.348 56.019 41.2003C56.019 42.0525 55.8512 42.8964 55.525 43.6838C55.1989 44.4712 54.7208 45.1866 54.1182 45.7892C53.5156 46.3918 52.8001 46.8699 52.0128 47.196C51.2254 47.5222 50.3815 47.69 49.5292 47.69H42.1595V34.7105Z" fill="#262626"/>
<defs>
<linearGradient id="paint0_linear_319_1822" x1="4.23921" y1="58.8133" x2="95.1294" y2="58.1751" gradientUnits="userSpaceOnUse">
<stop stop-color="#00CC5E"/>
<stop offset="1" stop-color="#0066FF"/>
</linearGradient>
</defs>
</svg>
