<svg width="36" height="36" viewBox="0 0 36 36" fill="none" xmlns="http://www.w3.org/2000/svg">
<path d="M19.6521 12.4551L20.3008 11.8062C21.3758 10.7313 23.1188 10.7313 24.1938 11.8062C25.2687 12.8812 25.2687 14.6242 24.1938 15.6991L23.5449 16.348M19.6521 12.4551C19.6521 12.4551 19.7331 13.8338 20.9497 15.0503C22.1662 16.2669 23.5449 16.348 23.5449 16.348M19.6521 12.4551L13.6872 18.4199C13.2832 18.824 13.0812 19.0259 12.9074 19.2487C12.7025 19.5115 12.5268 19.7957 12.3834 20.0965C12.2619 20.3515 12.1716 20.6226 11.9909 21.1646L11.2253 23.4615M23.5449 16.348L17.5801 22.3129C17.176 22.7168 16.9741 22.9188 16.7513 23.0926C16.4886 23.2975 16.2043 23.4732 15.9035 23.6166C15.6485 23.7381 15.3775 23.8284 14.8354 24.0091L12.5385 24.7748M11.2253 23.4615L11.0381 24.023C10.9492 24.2897 11.0186 24.5837 11.2174 24.7826C11.4163 24.9814 11.7103 25.0508 11.9771 24.9619L12.5385 24.7748M11.2253 23.4615L12.5385 24.7748" stroke="#262626" stroke-width="1.5" stroke-linecap="round" stroke-linejoin="round"/>
</svg>
