<svg width="36" height="36" viewBox="0 0 36 36" fill="none" xmlns="http://www.w3.org/2000/svg">
<path d="M20.1665 13.3055V22.6943C20.1665 23.0299 20.1665 23.1976 20.1942 23.3372C20.3082 23.9102 20.7558 24.3583 21.3288 24.4723C21.4683 24.5 21.6361 24.5 21.9717 24.5C22.3073 24.5 22.4757 24.5 22.6152 24.4723C23.1882 24.3583 23.6361 23.9102 23.75 23.3372C23.7775 23.1989 23.7775 23.0328 23.7775 22.7031V13.2967C23.7775 12.967 23.7775 12.8006 23.75 12.6623C23.6361 12.0893 23.1879 11.6417 22.6149 11.5278C22.4754 11.5 22.3076 11.5 21.972 11.5C21.6364 11.5 21.4683 11.5 21.3288 11.5278C20.7558 11.6417 20.3082 12.0893 20.1942 12.6623C20.1665 12.8018 20.1665 12.9699 20.1665 13.3055Z" stroke="url(#paint0_linear_319_2110)" stroke-width="1.5" stroke-linecap="round" stroke-linejoin="round"/>
<path d="M12.2222 13.3055V22.6943C12.2222 23.0299 12.2222 23.1976 12.2499 23.3372C12.3639 23.9102 12.8115 24.3583 13.3845 24.4723C13.524 24.5 13.6918 24.5 14.0274 24.5C14.363 24.5 14.5314 24.5 14.6709 24.4723C15.2439 24.3583 15.6917 23.9102 15.8057 23.3372C15.8332 23.1989 15.8332 23.0328 15.8332 22.7031V13.2967C15.8332 12.967 15.8332 12.8006 15.8057 12.6623C15.6917 12.0893 15.2436 11.6417 14.6706 11.5278C14.5311 11.5 14.3633 11.5 14.0277 11.5C13.6921 11.5 13.524 11.5 13.3845 11.5278C12.8115 11.6417 12.3639 12.0893 12.2499 12.6623C12.2222 12.8018 12.2222 12.9699 12.2222 13.3055Z" stroke="url(#paint1_linear_319_2110)" stroke-width="1.5" stroke-linecap="round" stroke-linejoin="round"/>
<defs>
<linearGradient id="paint0_linear_319_2110" x1="12.4669" y1="19.7064" x2="24.1367" y2="19.6335" gradientUnits="userSpaceOnUse">
<stop stop-color="#00CC5E"/>
<stop offset="1" stop-color="#0066FF"/>
</linearGradient>
<linearGradient id="paint1_linear_319_2110" x1="12.4669" y1="19.7064" x2="24.1367" y2="19.6335" gradientUnits="userSpaceOnUse">
<stop stop-color="#00CC5E"/>
<stop offset="1" stop-color="#0066FF"/>
</linearGradient>
</defs>
</svg>
