<svg width="27" height="26" viewBox="0 0 27 26" fill="none" xmlns="http://www.w3.org/2000/svg">
<path d="M14.4709 23H19.402C22.3606 23 24.333 21.005 24.333 18.0125V13.025C24.333 10.3317 22.6565 8.33669 20.1909 8.03744M20.1909 8.03744C19.9937 8.03744 19.6978 8.03744 19.402 8.03744H9.5399C9.24404 8.03744 9.0468 8.03742 8.75094 8.13717M20.1909 8.03744C20.0923 7.23944 19.7965 6.44138 19.2047 5.84288L17.4296 4.04738C16.0489 2.65087 13.8792 2.65087 12.4985 4.04738L9.34262 7.33913C9.04676 7.63838 8.84956 7.83792 8.75094 8.13717M8.75094 8.13717C6.1868 8.43643 4.60887 10.3317 4.60887 13.025C4.60887 13.3242 4.60887 13.7232 4.60887 14.0225M24.333 13.5237H21.3744C20.2896 13.5237 19.402 14.4215 19.402 15.5187C19.402 16.616 20.2896 17.5137 21.3744 17.5137H24.333M2.33301 18.9858L5.97439 23L13.2571 15.7631M13.2571 15.7631H9.61577M13.2571 15.7631V19.4462" stroke="white" stroke-width="1.5" stroke-linecap="round" stroke-linejoin="round"/>
</svg>
