<svg width="26" height="26" viewBox="0 0 26 26" fill="none" xmlns="http://www.w3.org/2000/svg">
<path d="M14.1379 23H19.069C22.0276 23 24 21.005 24 18.0125V13.025C24 10.3317 22.3234 8.33669 19.8579 8.03744M19.8579 8.03744C19.6607 8.03744 19.3648 8.03744 19.069 8.03744H9.2069C8.91103 8.03744 8.71379 8.03742 8.41793 8.13717M19.8579 8.03744C19.7593 7.23944 19.4634 6.44138 18.8717 5.84288L17.0965 4.04738C15.7159 2.65087 13.5462 2.65087 12.1655 4.04738L9.00961 7.33913C8.71375 7.63838 8.51655 7.83792 8.41793 8.13717M8.41793 8.13717C5.85379 8.43643 4.27586 10.3317 4.27586 13.025C4.27586 13.3242 4.27586 13.7232 4.27586 14.0225M24 13.5237H21.0414C19.9566 13.5237 19.069 14.4215 19.069 15.5187C19.069 16.616 19.9566 17.5137 21.0414 17.5137H24M2 18.9858L5.64138 23L12.9241 15.7631M12.9241 15.7631H9.28276M12.9241 15.7631V19.4462" stroke="white" stroke-width="1.5" stroke-linecap="round" stroke-linejoin="round"/>
</svg>
