<svg width="16" height="26" viewBox="0 0 16 26" fill="none" xmlns="http://www.w3.org/2000/svg">
<path d="M14.4998 21.5317V2.07705C14.5011 1.98391 14.455 1.89684 14.3781 1.84717C14.3014 1.79763 14.2051 1.79265 14.1239 1.83418L12.0355 2.92707C11.9523 2.97066 11.8527 2.96423 11.7755 2.91007L10.0949 1.73703C10.0079 1.6762 9.89349 1.6762 9.80651 1.73703L8.14478 2.89671C8.05779 2.95755 7.94339 2.95755 7.8564 2.89671L6.19467 1.73703C6.10769 1.6762 5.99328 1.6762 5.9063 1.73703L4.22448 2.90521C4.14824 2.96083 4.04849 2.96933 3.96446 2.92707L1.87608 1.83418C1.7949 1.79265 1.69855 1.79763 1.62179 1.84717C1.54504 1.89684 1.49898 1.98391 1.50024 2.07705V20.5317C1.48771 21.159 1.97229 21.6781 2.58284 21.6914H6M4.5 8.55469L10.5 8.55469M4.5 11.5547H9.5M4.5 14.5547H7.5M10 25.035V20.035M10 25.035L8 23.035M10 25.035L12 23.035" stroke="url(#paint0_linear_319_1362)" stroke-width="1.5" stroke-miterlimit="10" stroke-linecap="round" stroke-linejoin="round"/>
<defs>
<linearGradient id="paint0_linear_319_1362" x1="-0.499999" y1="12.035" x2="14.5" y2="12.035" gradientUnits="userSpaceOnUse">
<stop stop-color="#00CC5E"/>
<stop offset="1" stop-color="#0066FF"/>
</linearGradient>
</defs>
</svg>
