<svg width="21" height="22" viewBox="0 0 21 22" fill="none" xmlns="http://www.w3.org/2000/svg">
<path d="M5.79967 18.0559L5.88911 17.9667L6.14298 18.2144L6.11149 18.2455C6.11125 18.2457 6.11102 18.2459 6.11079 18.2462L6.05305 18.3031L5.79967 18.0559ZM20.0001 6.42496L19.8697 6.46177C19.5945 5.78215 19.213 5.13506 18.7254 4.54526L18.8173 4.45458C19.3228 5.06057 19.717 5.72619 20.0001 6.42496ZM17.7478 3.40257L17.6588 3.49039C14.9153 1.27163 10.9474 1.27163 8.20393 3.49039L8.11488 3.40256C10.9095 1.14706 14.9532 1.14706 17.7478 3.40257ZM7.13735 4.54527C5.76955 6.1998 5.23685 8.30501 5.54283 10.3115L5.40916 10.3454C5.09141 8.2981 5.63574 6.14434 7.04538 4.45456L7.13735 4.54527ZM0.844411 18.2341L0.981103 18.2191L1.06657 18.9778L0.92988 18.9928L0.844411 18.2341ZM11.7701 16.6149L11.7995 16.5021C13.8357 16.8086 15.9768 16.283 17.6588 14.9227L17.7478 15.0105C16.0341 16.3936 13.8495 16.9295 11.7701 16.6149ZM3.01329 20.9178L3.80267 21.0043L3.78972 21.1192L3.00034 21.0327L3.01329 20.9178ZM9.4273 17.2596L8.37238 18.3C8.35505 18.2789 8.33649 18.2587 8.31677 18.2395L8.28504 18.2085L9.33721 17.1707L9.4273 17.2596ZM18.7254 13.8678C19.1668 13.3338 19.5213 12.7528 19.7887 12.1433L19.9177 12.1836C19.6422 12.8111 19.2755 13.4093 18.8173 13.9585L18.7254 13.8678ZM1.7812 15.6072L4.76627 12.663L4.85634 12.7518L1.87128 15.696L1.7812 15.6072ZM11.8687 11.308L11.9597 11.2183C12.5113 11.4648 13.1476 11.4648 13.6992 11.2183L13.7901 11.308C13.1834 11.5888 12.4754 11.5888 11.8687 11.308ZM10.7958 8.35466L10.8969 8.45437C10.6539 8.99576 10.6539 9.61837 10.8969 10.1598L10.7958 10.2595C10.5038 9.65872 10.5038 8.95543 10.7958 8.35466ZM11.9597 7.39578L11.8687 7.30609C12.4754 7.02535 13.1834 7.02535 13.7901 7.30609L13.6992 7.39578C13.1476 7.1493 12.5113 7.1493 11.9597 7.39578ZM14.8631 10.2595L14.762 10.1598C15.005 9.61837 15.005 8.99576 14.762 8.45437L14.8631 8.35466C15.1551 8.95543 15.1551 9.65872 14.8631 10.2595Z" stroke="url(#paint0_linear_319_1547)" stroke-width="1.5" stroke-linecap="round" stroke-linejoin="round"/>
<defs>
<linearGradient id="paint0_linear_319_1547" x1="0.444781" y1="14.2174" x2="21.6525" y2="14.0685" gradientUnits="userSpaceOnUse">
<stop stop-color="#00CC5E"/>
<stop offset="1" stop-color="#0066FF"/>
</linearGradient>
</defs>
</svg>
