<svg width="16" height="15" viewBox="0 0 16 15" fill="none" xmlns="http://www.w3.org/2000/svg">
<path d="M9.57405 2.21878L10.1919 1.60086C11.2157 0.577056 12.8757 0.577056 13.8995 1.60086C14.9233 2.62466 14.9233 4.28458 13.8995 5.30838L13.2815 5.9263M9.57405 2.21878C9.57405 2.21878 9.65125 3.53186 10.8099 4.69046C11.9685 5.84906 13.2815 5.9263 13.2815 5.9263M9.57405 2.21878L3.8932 7.89961C3.50842 8.28441 3.31604 8.47674 3.15058 8.68888C2.9554 8.93914 2.78808 9.20988 2.65154 9.49634C2.5358 9.73921 2.44977 9.99734 2.27769 10.5135L1.54852 12.7011M13.2815 5.9263L7.60072 11.6071C7.21592 11.9919 7.02358 12.1843 6.81145 12.3497C6.5612 12.5449 6.29044 12.7123 6.00397 12.8488C5.76112 12.9645 5.503 13.0505 4.98677 13.2226L2.79926 13.9518M1.54852 12.7011L1.37028 13.2358C1.2856 13.4898 1.35172 13.7699 1.54107 13.9593C1.73042 14.1486 2.0105 14.2147 2.26454 14.1301L2.79926 13.9518M1.54852 12.7011L2.79926 13.9518" stroke="url(#paint0_linear_319_7212)" stroke-width="1.5" stroke-linecap="round" stroke-linejoin="round"/>
<defs>
<linearGradient id="paint0_linear_319_7212" x1="1.61638" y1="9.24981" x2="15.0816" y2="9.15525" gradientUnits="userSpaceOnUse">
<stop stop-color="#00CC5E"/>
<stop offset="1" stop-color="#0066FF"/>
</linearGradient>
</defs>
</svg>
