<svg width="24" height="23" viewBox="0 0 24 23" fill="none" xmlns="http://www.w3.org/2000/svg">
<path d="M13.1379 21.7275H18.069C21.0276 21.7275 23 19.7325 23 16.74V11.7525C23 9.05924 21.3234 7.06423 18.8579 6.76498M18.8579 6.76498C18.6607 6.76498 18.3648 6.76498 18.069 6.76498H8.2069C7.91103 6.76498 7.71379 6.76496 7.41793 6.86471M18.8579 6.76498C18.7593 5.96698 18.4634 5.16892 17.8717 4.57041L16.0965 2.77492C14.7159 1.37841 12.5462 1.37841 11.1655 2.77492L8.00962 6.06667C7.71375 6.36592 7.51655 6.56546 7.41793 6.86471M7.41793 6.86471C4.85379 7.16396 3.27586 9.05924 3.27586 11.7525C3.27586 12.0518 3.27586 12.4508 3.27586 12.75M23 12.2513H20.0414C18.9566 12.2513 18.069 13.149 18.069 14.2463C18.069 15.3435 18.9566 16.2413 20.0414 16.2413H23M1 17.7134V17.7134C2.98372 19.9002 6.39146 19.9885 8.48578 17.9074L11.9241 14.4907M11.9241 14.4907H8.28276M11.9241 14.4907V18.1738" stroke="url(#paint0_linear_319_1126)" stroke-width="1.5"/>
<defs>
<linearGradient id="paint0_linear_319_1126" x1="1" y1="14.3806" x2="23.0175" y2="14.2112" gradientUnits="userSpaceOnUse">
<stop stop-color="#00CC5E"/>
<stop offset="1" stop-color="#0066FF"/>
</linearGradient>
</defs>
</svg>
