<svg width="22" height="18" viewBox="0 0 22 18" fill="none" xmlns="http://www.w3.org/2000/svg">
<path fill-rule="evenodd" clip-rule="evenodd" d="M21.4431 0.394926C21.636 0.536185 21.75 0.760934 21.75 1.00001V17C21.75 17.2391 21.636 17.4638 21.4431 17.6051C21.2503 17.7463 21.0016 17.7872 20.7737 17.715L10.751 14.5426L10.7217 14.6441C10.7215 14.6448 10.7213 14.6454 10.7211 14.646C10.2246 16.3977 8.42173 17.3668 6.7744 16.8353C5.04756 16.3032 4.17429 14.43 4.66507 12.7884L4.71056 12.6307L3.19183 12.15H1C0.585786 12.15 0.25 11.8142 0.25 11.4V6.60001C0.25 6.18579 0.585786 5.85001 1 5.85001H3.19183L20.7737 0.284969C21.0016 0.212825 21.2503 0.253667 21.4431 0.394926ZM6.14111 13.0835L6.10293 13.2158C5.82785 14.1313 6.33645 15.1327 7.21938 15.4028L7.23185 15.4066C8.04377 15.6705 9.00542 15.2008 9.2783 14.2359L9.27937 14.2321L9.32043 14.0898L6.14111 13.0835ZM20.25 2.02407L3.53402 7.31504C3.46081 7.33821 3.38448 7.35001 3.30769 7.35001H1.75V10.65H3.30769C3.38448 10.65 3.46081 10.6618 3.53402 10.685L20.25 15.9759V2.02407Z" fill="url(#paint0_linear_582_2926)"/>
<defs>
<linearGradient id="paint0_linear_582_2926" x1="0.25" y1="9.00001" x2="21.75" y2="9.00001" gradientUnits="userSpaceOnUse">
<stop stop-color="#00CC5E"/>
<stop offset="1" stop-color="#00B3FF"/>
</linearGradient>
</defs>
</svg>
