<svg width="23" height="18" viewBox="0 0 23 18" fill="none" xmlns="http://www.w3.org/2000/svg">
<path d="M22 4.67971V1.41657C22 1.30609 21.9592 1.20013 21.8865 1.12201C21.8139 1.04389 21.7154 1 21.6127 1H7.15122C7.0485 1 6.95 1.04389 6.87737 1.12201C6.80474 1.20013 6.76394 1.30609 6.76394 1.41657V4.26314C6.76394 4.37362 6.80474 4.47958 6.87737 4.5577C6.95 4.63582 7.0485 4.67971 7.15122 4.67971H19.3952M22 10.8399V7.57671C22 7.46623 21.9592 7.36028 21.8866 7.28216C21.8139 7.20403 21.7154 7.16014 21.6127 7.16014H7.15124C7.04853 7.16014 6.95003 7.20403 6.8774 7.28216C6.80477 7.36028 6.76397 7.46623 6.76397 7.57671V10.4233C6.76397 10.5338 6.80477 10.6397 6.8774 10.7178C6.95003 10.796 7.04853 10.8399 7.15124 10.8399H19.3953M22 17V13.7369C22 13.6264 21.9592 13.5204 21.8866 13.4423C21.8139 13.3642 21.7154 13.3203 21.6127 13.3203H7.15124C7.04853 13.3203 6.95003 13.3642 6.8774 13.4423C6.80477 13.5204 6.76397 13.6264 6.76397 13.7369V16.5834C6.76397 16.6939 6.80477 16.7999 6.8774 16.878C6.95003 16.9561 7.04853 17 7.15124 17H19.3953M1.38727 1.00035H4.03333C4.24722 1.00035 4.4206 1.18685 4.4206 1.41692V4.26314C4.4206 4.49321 4.24722 4.67971 4.03333 4.67971H1.38727C1.17339 4.67971 1 4.49321 1 4.26314V1.41692C1 1.18685 1.17339 1.00035 1.38727 1.00035ZM1.38727 7.16049H4.03333C4.24722 7.16049 4.4206 7.347 4.4206 7.57706V10.4233C4.4206 10.6534 4.24722 10.8399 4.03333 10.8399H1.38727C1.17339 10.8399 1 10.6534 1 10.4233V7.57706C1 7.347 1.17339 7.16049 1.38727 7.16049ZM1.38727 13.3203H4.03333C4.24722 13.3203 4.4206 13.5068 4.4206 13.7369V16.5831C4.4206 16.8131 4.24722 16.9997 4.03333 16.9997H1.38727C1.17339 16.9997 1 16.8131 1 16.5831V13.7369C1 13.5068 1.17339 13.3203 1.38727 13.3203Z" stroke="url(#paint0_linear_582_3027)" stroke-width="1.5" stroke-linecap="round" stroke-linejoin="round"/>
<defs>
<linearGradient id="paint0_linear_582_3027" x1="21.5552" y1="13.3928" x2="0.360567" y2="13.9397" gradientUnits="userSpaceOnUse">
<stop stop-color="#00CC5E"/>
<stop offset="1" stop-color="#0066FF"/>
</linearGradient>
</defs>
</svg>
