<svg width="16" height="26" viewBox="0 0 16 26" fill="none" xmlns="http://www.w3.org/2000/svg">
<path d="M8.00004 8.69978C6.56398 8.69978 5.21523 9.09282 4.04894 9.77976V5.70791C4.04894 3.83276 5.42565 2.30734 7.11803 2.30734H8.8822C10.5745 2.30734 11.9513 3.83283 11.9513 5.70791C11.9513 6.12967 12.2933 6.47169 12.7151 6.47169C13.1368 6.47169 13.4788 6.12967 13.4788 5.70791C13.4787 2.99054 11.4166 0.779785 8.88212 0.779785H7.11795C4.58335 0.779785 2.52131 2.99054 2.52131 5.70791V10.9467C0.970227 12.4543 0 14.5923 0 16.9602C7.63778e-05 21.5151 3.58884 25.2207 8.00004 25.2207C12.4112 25.2207 16 21.5151 16 16.9603C16 12.4055 12.4112 8.69978 8.00004 8.69978ZM8.00004 23.6931C4.43113 23.6931 1.52763 20.6728 1.52763 16.9603C1.52763 13.2478 4.43121 10.2274 8.00004 10.2274C11.5689 10.2274 14.4724 13.2478 14.4724 16.9603C14.4724 20.6728 11.5689 23.6931 8.00004 23.6931Z" fill="url(#paint0_linear_582_2986)"/>
<path d="M10.2535 15.7165C10.2535 14.4736 9.24263 13.4623 7.99996 13.4623C6.75745 13.4623 5.74659 14.4735 5.74659 15.7165C5.74659 16.3518 6.01024 16.9431 6.46019 17.3629L5.91981 19.7863C5.90767 19.8409 5.90156 19.8966 5.90156 19.9526C5.90156 20.6146 6.54985 21.1137 7.40956 21.1137H8.59089C9.45045 21.1137 10.0986 20.6146 10.0986 19.9526C10.0986 19.8967 10.0925 19.8409 10.0803 19.7863L9.53981 17.3629C9.98976 16.943 10.2535 16.3518 10.2535 15.7165ZM7.52955 19.5861L7.99996 17.4763L8.47052 19.5861H7.52955ZM8.33304 16.3619C8.18457 16.4391 8.07008 16.5598 7.99996 16.7022C7.92985 16.5598 7.81536 16.4391 7.66688 16.3619C7.42468 16.2361 7.27414 15.9887 7.27414 15.7165C7.27414 15.3159 7.59974 14.9899 7.99996 14.9899C8.40026 14.9899 8.72593 15.3159 8.72593 15.7165C8.72593 15.9887 8.57539 16.236 8.33304 16.3619Z" fill="url(#paint1_linear_582_2986)"/>
<defs>
<linearGradient id="paint0_linear_582_2986" x1="-0.186047" y1="15.7935" x2="16.186" y2="15.7935" gradientUnits="userSpaceOnUse">
<stop stop-color="#01CC5F"/>
<stop offset="1" stop-color="#01B4FD"/>
</linearGradient>
<linearGradient id="paint1_linear_582_2986" x1="-0.186047" y1="15.7935" x2="16.186" y2="15.7935" gradientUnits="userSpaceOnUse">
<stop stop-color="#01CC5F"/>
<stop offset="1" stop-color="#01B4FD"/>
</linearGradient>
</defs>
</svg>
