<svg width="16" height="26" viewBox="0 0 16 26" fill="none" xmlns="http://www.w3.org/2000/svg">
<path d="M8.00004 8.69953C6.56398 8.69953 5.21523 9.09257 4.04894 9.77952V5.70766C4.04894 3.83251 5.42565 2.3071 7.11803 2.3071H8.8822C10.5745 2.3071 11.9513 3.83259 11.9513 5.70766C11.9513 6.12942 12.2933 6.47144 12.7151 6.47144C13.1368 6.47144 13.4788 6.12942 13.4788 5.70766C13.4787 2.9903 11.4166 0.779541 8.88212 0.779541H7.11795C4.58335 0.779541 2.52131 2.9903 2.52131 5.70766V10.9465C0.970227 12.454 0 14.5921 0 16.9599C7.63778e-05 21.5148 3.58884 25.2204 8.00004 25.2204C12.4112 25.2204 16 21.5148 16 16.96C16 12.4052 12.4112 8.69953 8.00004 8.69953ZM8.00004 23.6929C4.43113 23.6929 1.52763 20.6725 1.52763 16.96C1.52763 13.2475 4.43121 10.2272 8.00004 10.2272C11.5689 10.2272 14.4724 13.2475 14.4724 16.96C14.4724 20.6725 11.5689 23.6929 8.00004 23.6929Z" fill="#9A9A9A"/>
<path d="M10.2535 15.7162C10.2535 14.4733 9.24263 13.4621 7.99996 13.4621C6.75745 13.4621 5.74659 14.4732 5.74659 15.7162C5.74659 16.3515 6.01024 16.9428 6.46019 17.3627L5.91981 19.7861C5.90767 19.8407 5.90156 19.8964 5.90156 19.9523C5.90156 20.6143 6.54985 21.1134 7.40956 21.1134H8.59089C9.45045 21.1134 10.0986 20.6143 10.0986 19.9523C10.0986 19.8964 10.0925 19.8407 10.0803 19.7861L9.53981 17.3627C9.98976 16.9428 10.2535 16.3515 10.2535 15.7162ZM7.52955 19.5858L7.99996 17.4761L8.47052 19.5858H7.52955ZM8.33304 16.3617C8.18457 16.4388 8.07008 16.5596 7.99996 16.7019C7.92985 16.5596 7.81536 16.4388 7.66688 16.3617C7.42468 16.2359 7.27414 15.9885 7.27414 15.7162C7.27414 15.3156 7.59974 14.9896 7.99996 14.9896C8.40026 14.9896 8.72593 15.3156 8.72593 15.7162C8.72593 15.9884 8.57539 16.2357 8.33304 16.3617Z" fill="#9A9A9A"/>
</svg>
