<svg width="24" height="20" viewBox="0 0 24 20" fill="none" xmlns="http://www.w3.org/2000/svg">
<path d="M19.5834 9.99967C19.5834 10.598 19.0983 11.083 18.5 11.083C17.9017 11.083 17.4167 10.598 17.4167 9.99967C17.4167 9.40135 17.9017 8.91634 18.5 8.91634C19.0983 8.91634 19.5834 9.40135 19.5834 9.99967Z" fill="url(#paint0_linear_582_2936)"/>
<path fill-rule="evenodd" clip-rule="evenodd" d="M9.77223 0.520508H13.1445C15.1354 0.520487 16.7123 0.520476 17.9464 0.68641C19.2165 0.857165 20.2446 1.21696 21.0554 2.02769C22.0567 3.02911 22.3759 4.37027 22.4918 6.11059C23.1171 6.38578 23.5893 6.96775 23.6413 7.70495C23.646 7.77016 23.6459 7.84048 23.6459 7.90559C23.6459 7.91155 23.6459 7.9174 23.6459 7.92325V12.0761C23.6459 12.0819 23.6459 12.0878 23.6459 12.0938C23.6459 12.1589 23.646 12.2292 23.6413 12.2944C23.5893 13.0316 23.1171 13.6136 22.4918 13.8887C22.3759 15.6291 22.0567 16.9703 21.0554 17.9717C20.2446 18.7824 19.2165 19.1421 17.9464 19.313C16.7123 19.4788 15.1354 19.4788 13.1445 19.4788H9.77224C7.78134 19.4788 6.20439 19.4788 4.97025 19.313C3.70013 19.1421 2.6721 18.7824 1.86136 17.9717C1.05064 17.1609 0.690844 16.1329 0.520089 14.8628C0.354155 13.6286 0.354166 12.0517 0.354188 10.0608V9.93857C0.354166 7.94762 0.354155 6.37071 0.520089 5.13657C0.690844 3.86645 1.05064 2.83842 1.86136 2.02769C2.6721 1.21696 3.70013 0.857165 4.97025 0.68641C6.20439 0.520476 7.78133 0.520487 9.77223 0.520508ZM20.8486 14.0622H18.7501C16.4261 14.0622 14.4375 12.2989 14.4375 9.99967C14.4375 7.70036 16.4261 5.93717 18.7501 5.93717H20.8486C20.7253 4.48394 20.4463 3.71681 19.9063 3.17673C19.4478 2.71826 18.8198 2.44345 17.73 2.29691C16.6166 2.14723 15.1491 2.14551 13.0834 2.14551H9.83335C7.76763 2.14551 6.30007 2.14723 5.18677 2.29691C4.09684 2.44345 3.46889 2.71826 3.01041 3.17673C2.55194 3.63521 2.27713 4.26316 2.13059 5.3531C1.98091 6.46639 1.97919 7.93397 1.97919 9.99967C1.97919 12.0654 1.98091 13.533 2.13059 14.6463C2.27713 15.7361 2.55194 16.3641 3.01041 16.8226C3.46889 17.2811 4.09684 17.5559 5.18677 17.7024C6.30007 17.8521 7.76763 17.8538 9.83335 17.8538H13.0834C15.1491 17.8538 16.6166 17.8521 17.73 17.7024C18.8198 17.5559 19.4478 17.2811 19.9063 16.8226C20.4463 16.2826 20.7253 15.5155 20.8486 14.0622ZM21.6671 7.56242C21.6452 7.56218 21.6163 7.56217 21.5694 7.56217H18.7501C17.208 7.56217 16.0625 8.7091 16.0625 9.99967C16.0625 11.2902 17.208 12.4372 18.7501 12.4372H21.5694C21.6163 12.4372 21.6452 12.4372 21.6671 12.437C21.6807 12.4367 21.6878 12.4366 21.6912 12.4364L21.6936 12.4363C21.917 12.4228 22.0129 12.2721 22.0203 12.1814C22.0203 12.1814 22.0205 12.1746 22.0206 12.1648C22.0209 12.1455 22.0209 12.12 22.0209 12.0761V7.92325C22.0209 7.87937 22.0209 7.85381 22.0206 7.83452C22.0205 7.82475 22.0203 7.81794 22.0203 7.81794C22.0129 7.7273 21.917 7.57658 21.6936 7.563C21.6936 7.563 21.6883 7.56264 21.6671 7.56242ZM6.58335 5.93717C7.03208 5.93717 7.39585 6.30095 7.39585 6.74967V13.2497C7.39585 13.6984 7.03208 14.0622 6.58335 14.0622C6.13463 14.0622 5.77085 13.6984 5.77085 13.2497V6.74967C5.77085 6.30095 6.13463 5.93717 6.58335 5.93717Z" fill="url(#paint1_linear_582_2936)"/>
<defs>
<linearGradient id="paint0_linear_582_2936" x1="0.354187" y1="9.99967" x2="23.6459" y2="9.99967" gradientUnits="userSpaceOnUse">
<stop stop-color="#00CC5E"/>
<stop offset="1" stop-color="#00B3FF"/>
</linearGradient>
<linearGradient id="paint1_linear_582_2936" x1="0.354187" y1="9.99967" x2="23.6459" y2="9.99967" gradientUnits="userSpaceOnUse">
<stop stop-color="#00CC5E"/>
<stop offset="1" stop-color="#00B3FF"/>
</linearGradient>
</defs>
</svg>
