<svg width="24" height="20" viewBox="0 0 24 20" fill="none" xmlns="http://www.w3.org/2000/svg">
<path d="M19.5834 10C19.5834 10.5984 19.0984 11.0834 18.5001 11.0834C17.9018 11.0834 17.4168 10.5984 17.4168 10C17.4168 9.40172 17.9018 8.91671 18.5001 8.91671C19.0984 8.91671 19.5834 9.40172 19.5834 10Z" fill="#9A9A9A"/>
<path fill-rule="evenodd" clip-rule="evenodd" d="M9.77229 0.520875H13.1445C15.1355 0.520853 16.7124 0.520842 17.9465 0.686776C19.2166 0.857531 20.2447 1.21733 21.0554 2.02805C22.0568 3.02947 22.3759 4.37064 22.4918 6.11096C23.1171 6.38615 23.5894 6.96812 23.6414 7.70531C23.646 7.77053 23.6459 7.84085 23.6459 7.90596C23.6459 7.91192 23.6459 7.91777 23.6459 7.92362V12.0765C23.6459 12.0823 23.6459 12.0882 23.6459 12.0941C23.6459 12.1592 23.646 12.2295 23.6414 12.2948C23.5894 13.032 23.1171 13.6139 22.4918 13.8891C22.3759 15.6295 22.0568 16.9706 21.0554 17.9721C20.2447 18.7827 19.2166 19.1425 17.9465 19.3133C16.7124 19.4792 15.1355 19.4792 13.1445 19.4792H9.7723C7.7814 19.4792 6.20445 19.4792 4.97031 19.3133C3.70019 19.1425 2.67216 18.7827 1.86143 17.9721C1.0507 17.1613 0.690905 16.1332 0.52015 14.8631C0.354216 13.629 0.354227 12.0521 0.354249 10.0611V9.93894C0.354227 7.94799 0.354216 6.37108 0.52015 5.13694C0.690905 3.86681 1.0507 2.83879 1.86143 2.02805C2.67216 1.21733 3.70019 0.857531 4.97031 0.686776C6.20445 0.520842 7.78139 0.520853 9.77229 0.520875ZM20.8486 14.0625H18.7501C16.4261 14.0625 14.4376 12.2993 14.4376 10C14.4376 7.70073 16.4261 5.93754 18.7501 5.93754H20.8486C20.7254 4.4843 20.4464 3.71717 19.9064 3.1771C19.4479 2.71862 18.8199 2.44381 17.73 2.29728C16.6167 2.1476 15.1491 2.14587 13.0834 2.14587H9.83342C7.76769 2.14587 6.30013 2.1476 5.18684 2.29728C4.0969 2.44381 3.46895 2.71862 3.01047 3.1771C2.552 3.63558 2.27719 4.26353 2.13066 5.35346C1.98097 6.46676 1.97925 7.93434 1.97925 10C1.97925 12.0657 1.98097 13.5333 2.13066 14.6467C2.27719 15.7365 2.552 16.3645 3.01047 16.823C3.46895 17.2814 4.0969 17.5563 5.18684 17.7028C6.30013 17.8525 7.76769 17.8542 9.83342 17.8542H13.0834C15.1491 17.8542 16.6167 17.8525 17.73 17.7028C18.8199 17.5563 19.4479 17.2814 19.9064 16.823C20.4464 16.2829 20.7254 15.5158 20.8486 14.0625ZM21.6672 7.56279C21.6452 7.56255 21.6164 7.56254 21.5695 7.56254H18.7501C17.2081 7.56254 16.0626 8.70947 16.0626 10C16.0626 11.2906 17.2081 12.4375 18.7501 12.4375H21.5695C21.6164 12.4375 21.6452 12.4375 21.6672 12.4373C21.6807 12.4371 21.6879 12.437 21.6913 12.4368L21.6936 12.4367C21.917 12.4231 22.013 12.2724 22.0204 12.1818C22.0204 12.1818 22.0206 12.1749 22.0207 12.1652C22.0209 12.1459 22.0209 12.1203 22.0209 12.0765V7.92362C22.0209 7.87974 22.0209 7.85417 22.0207 7.83489C22.0206 7.82512 22.0204 7.8183 22.0204 7.8183C22.013 7.72766 21.917 7.57695 21.6936 7.56336C21.6936 7.56336 21.6883 7.56301 21.6672 7.56279ZM6.58342 5.93754C7.03214 5.93754 7.39592 6.30131 7.39592 6.75004V13.25C7.39592 13.6988 7.03214 14.0625 6.58342 14.0625C6.13469 14.0625 5.77092 13.6988 5.77092 13.25V6.75004C5.77092 6.30131 6.13469 5.93754 6.58342 5.93754Z" fill="#9A9A9A"/>
</svg>
