<svg width="22" height="22" viewBox="0 0 22 22" fill="none" xmlns="http://www.w3.org/2000/svg">
<path d="M4.12354 12.263L6.2258 12.2639C7.16828 12.2742 7.66535 12.3795 8.1813 12.6554C8.68098 12.9226 9.07729 13.3189 9.34451 13.8186C9.63578 14.3632 9.73689 14.8868 9.73689 15.9354V17.8764C9.73689 18.925 9.63578 19.4485 9.34451 19.9932C9.07729 20.4928 8.68098 20.8891 8.1813 21.1564C7.63668 21.4476 7.1131 21.5487 6.06452 21.5487H4.12354C3.07495 21.5487 2.55137 21.4476 2.00676 21.1564C1.50708 20.8891 1.11077 20.4928 0.843545 19.9932C0.55228 19.4485 0.451172 18.925 0.451172 17.8764L0.452025 15.7741C0.462342 14.8316 0.56761 14.3346 0.843545 13.8186C1.11077 13.3189 1.50708 12.9226 2.00676 12.6554C2.55137 12.3641 3.07495 12.263 4.12354 12.263ZM15.2664 12.263L17.3687 12.2639C18.3111 12.2742 18.8082 12.3795 19.3242 12.6554C19.8238 12.9226 20.2201 13.3189 20.4874 13.8186C20.7786 14.3632 20.8797 14.8868 20.8797 15.9354V17.8764C20.8797 18.925 20.7786 19.4485 20.4874 19.9932C20.2201 20.4928 19.8238 20.8891 19.3242 21.1564C18.7795 21.4476 18.256 21.5487 17.2074 21.5487H15.2664C14.2178 21.5487 13.6942 21.4476 13.1496 21.1564C12.6499 20.8891 12.2536 20.4928 11.9864 19.9932C11.6951 19.4485 11.594 18.925 11.594 17.8764L11.5949 15.7741C11.6052 14.8316 11.7105 14.3346 11.9864 13.8186C12.2536 13.3189 12.6499 12.9226 13.1496 12.6554C13.6942 12.3641 14.2178 12.263 15.2664 12.263ZM6.06452 13.6559L3.99552 13.6564C3.25295 13.6624 2.96228 13.7239 2.66363 13.8836C2.40668 14.021 2.2092 14.2185 2.07179 14.4755C1.90319 14.7907 1.84403 15.0971 1.84403 15.9354L1.84453 18.0044C1.85056 18.747 1.91206 19.0376 2.07179 19.3363C2.2092 19.5932 2.40668 19.7907 2.66363 19.9281C2.94569 20.079 3.22063 20.1422 3.87586 20.1539L4.12354 20.1559H6.06452C6.90283 20.1559 7.20919 20.0967 7.52443 19.9281C7.78137 19.7907 7.97886 19.5932 8.11627 19.3363C8.26712 19.0542 8.33036 18.7793 8.342 18.1241L8.34403 17.8764V15.9354C8.34403 15.0971 8.28487 14.7907 8.11627 14.4755C7.97886 14.2185 7.78137 14.021 7.52443 13.8836C7.20919 13.715 6.90283 13.6559 6.06452 13.6559ZM17.2074 13.6559L15.1384 13.6564C14.3958 13.6624 14.1051 13.7239 13.8065 13.8836C13.5495 14.021 13.3521 14.2185 13.2146 14.4755C13.046 14.7907 12.9869 15.0971 12.9869 15.9354L12.9874 18.0044C12.9934 18.747 13.0549 19.0376 13.2146 19.3363C13.3521 19.5932 13.5495 19.7907 13.8065 19.9281C14.0885 20.079 14.3635 20.1422 15.0187 20.1539L15.2664 20.1559H17.2074C18.0457 20.1559 18.352 20.0967 18.6673 19.9281C18.9242 19.7907 19.1217 19.5932 19.2591 19.3363C19.41 19.0542 19.4732 18.7793 19.4849 18.1241L19.4869 17.8764V15.9354C19.4869 15.0971 19.4277 14.7907 19.2591 14.4755C19.1217 14.2185 18.9242 14.021 18.6673 13.8836C18.352 13.715 18.0457 13.6559 17.2074 13.6559ZM15.4144 0.574444C15.9567 0.410081 16.5171 0.410081 17.0594 0.574444C17.6505 0.753592 18.0922 1.05233 18.8336 1.79379L20.3196 3.28091C20.9787 3.95464 21.2557 4.38056 21.4255 4.94051C21.5898 5.48279 21.5898 6.04326 21.4255 6.58554C21.2463 7.1766 20.9476 7.61832 20.2061 8.35978L18.8336 9.73226C18.0922 10.4737 17.6505 10.7725 17.0594 10.9516C16.5171 11.116 15.9567 11.116 15.4144 10.9516C14.8233 10.7725 14.3816 10.4737 13.6401 9.73226L12.2677 8.35978C11.5262 7.61832 11.2275 7.1766 11.0483 6.58554C10.8839 6.04326 10.8839 5.48279 11.0483 4.94051C11.2275 4.34945 11.5262 3.90773 12.2677 3.16627L13.7548 1.68035C14.4285 1.02121 14.8544 0.744163 15.4144 0.574444ZM4.12354 1.12017L6.2258 1.12102C7.16828 1.13133 7.66535 1.2366 8.1813 1.51254C8.68098 1.77977 9.07729 2.17608 9.34451 2.67575C9.63578 3.22037 9.73689 3.74395 9.73689 4.79253V6.73351C9.73689 7.7821 9.63578 8.30568 9.34451 8.8503C9.07729 9.34997 8.68098 9.74628 8.1813 10.0135C7.63668 10.3048 7.1131 10.4059 6.06452 10.4059H4.12354C3.07495 10.4059 2.55137 10.3048 2.00676 10.0135C1.50708 9.74628 1.11077 9.34997 0.843545 8.8503C0.55228 8.30568 0.451172 7.7821 0.451172 6.73351L0.452025 4.63125C0.462342 3.68878 0.56761 3.1917 0.843545 2.67575C1.11077 2.17608 1.50708 1.77977 2.00676 1.51254C2.55137 1.22127 3.07495 1.12017 4.12354 1.12017ZM16.6554 1.90742C16.3765 1.8229 16.0972 1.8229 15.8184 1.90742C15.4763 2.01112 15.2178 2.18591 14.625 2.77868L13.1624 4.24204C12.6416 4.77138 12.4795 5.02041 12.3813 5.34453C12.2968 5.62338 12.2968 5.90267 12.3813 6.18152C12.4741 6.48763 12.6238 6.72676 13.0788 7.19831L13.2525 7.37488L14.625 8.74736C15.2178 9.34014 15.4763 9.51493 15.8184 9.61863C16.0972 9.70315 16.3765 9.70315 16.6554 9.61863C16.9615 9.52584 17.2006 9.37615 17.6722 8.92106L17.8487 8.74736L19.2212 7.37488C19.814 6.7821 19.9888 6.52365 20.0925 6.18152C20.177 5.90267 20.177 5.62338 20.0925 5.34453C19.9888 5.0024 19.814 4.74394 19.2212 4.15117L17.7579 2.68851C17.2285 2.16771 16.9795 2.00566 16.6554 1.90742ZM6.06452 2.51302L3.99552 2.51352C3.25295 2.51955 2.96228 2.58106 2.66363 2.74078C2.40668 2.87819 2.2092 3.07568 2.07179 3.33262C1.90319 3.64787 1.84403 3.95422 1.84403 4.79253L1.84453 6.86154C1.85056 7.6041 1.91206 7.89477 2.07179 8.19343C2.2092 8.45037 2.40668 8.64785 2.66363 8.78527C2.94569 8.93612 3.22063 8.99936 3.87586 9.011L4.12354 9.01302H6.06452C6.90283 9.01302 7.20919 8.95386 7.52443 8.78527C7.78137 8.64785 7.97886 8.45037 8.11627 8.19343C8.26712 7.91136 8.33036 7.63642 8.342 6.98119L8.34403 6.73351V4.79253C8.34403 3.95422 8.28487 3.64787 8.11627 3.33262C7.97886 3.07568 7.78137 2.87819 7.52443 2.74078C7.20919 2.57218 6.90283 2.51302 6.06452 2.51302Z" fill="#9A9A9A"/>
</svg>
