<svg width="22" height="22" viewBox="0 0 22 22" fill="none" xmlns="http://www.w3.org/2000/svg">
<path d="M4.1236 12.263L6.22586 12.2639C7.16834 12.2742 7.66541 12.3795 8.18136 12.6554C8.68104 12.9226 9.07735 13.3189 9.34457 13.8186C9.63584 14.3632 9.73695 14.8868 9.73695 15.9354V17.8764C9.73695 18.925 9.63584 19.4485 9.34457 19.9932C9.07735 20.4928 8.68104 20.8891 8.18136 21.1564C7.63675 21.4476 7.11316 21.5487 6.06458 21.5487H4.1236C3.07502 21.5487 2.55144 21.4476 2.00682 21.1564C1.50714 20.8891 1.11083 20.4928 0.843606 19.9932C0.552341 19.4485 0.451233 18.925 0.451233 17.8764L0.452086 15.7741C0.462403 14.8316 0.567671 14.3346 0.843606 13.8186C1.11083 13.3189 1.50714 12.9226 2.00682 12.6554C2.55144 12.3641 3.07502 12.263 4.1236 12.263ZM15.2665 12.263L17.3687 12.2639C18.3112 12.2742 18.8083 12.3795 19.3242 12.6554C19.8239 12.9226 20.2202 13.3189 20.4874 13.8186C20.7787 14.3632 20.8798 14.8868 20.8798 15.9354V17.8764C20.8798 18.925 20.7787 19.4485 20.4874 19.9932C20.2202 20.4928 19.8239 20.8891 19.3242 21.1564C18.7796 21.4476 18.256 21.5487 17.2074 21.5487H15.2665C14.2179 21.5487 13.6943 21.4476 13.1497 21.1564C12.65 20.8891 12.2537 20.4928 11.9865 19.9932C11.6952 19.4485 11.5941 18.925 11.5941 17.8764L11.5949 15.7741C11.6053 14.8316 11.7105 14.3346 11.9865 13.8186C12.2537 13.3189 12.65 12.9226 13.1497 12.6554C13.6943 12.3641 14.2179 12.263 15.2665 12.263ZM6.06458 13.6559L3.99558 13.6564C3.25302 13.6624 2.96234 13.7239 2.66369 13.8836C2.40674 14.021 2.20926 14.2185 2.07185 14.4755C1.90325 14.7907 1.84409 15.0971 1.84409 15.9354L1.84459 18.0044C1.85062 18.747 1.91212 19.0376 2.07185 19.3363C2.20926 19.5932 2.40674 19.7907 2.66369 19.9281C2.94575 20.079 3.22069 20.1422 3.87592 20.1539L4.1236 20.1559H6.06458C6.90289 20.1559 7.20925 20.0967 7.52449 19.9281C7.78144 19.7907 7.97892 19.5932 8.11633 19.3363C8.26718 19.0542 8.33042 18.7793 8.34206 18.1241L8.34409 17.8764V15.9354C8.34409 15.0971 8.28493 14.7907 8.11633 14.4755C7.97892 14.2185 7.78144 14.021 7.52449 13.8836C7.20925 13.715 6.90289 13.6559 6.06458 13.6559ZM17.2074 13.6559L15.1384 13.6564C14.3959 13.6624 14.1052 13.7239 13.8065 13.8836C13.5496 14.021 13.3521 14.2185 13.2147 14.4755C13.0461 14.7907 12.9869 15.0971 12.9869 15.9354L12.9874 18.0044C12.9935 18.747 13.055 19.0376 13.2147 19.3363C13.3521 19.5932 13.5496 19.7907 13.8065 19.9281C14.0886 20.079 14.3636 20.1422 15.0188 20.1539L15.2665 20.1559H17.2074C18.0457 20.1559 18.3521 20.0967 18.6674 19.9281C18.9243 19.7907 19.1218 19.5932 19.2592 19.3363C19.41 19.0542 19.4733 18.7793 19.4849 18.1241L19.4869 17.8764V15.9354C19.4869 15.0971 19.4278 14.7907 19.2592 14.4755C19.1218 14.2185 18.9243 14.021 18.6674 13.8836C18.3521 13.715 18.0457 13.6559 17.2074 13.6559ZM15.4144 0.574444C15.9567 0.410081 16.5172 0.410081 17.0595 0.574444C17.6505 0.753592 18.0922 1.05233 18.8337 1.79379L20.3196 3.28091C20.9788 3.95464 21.2558 4.38056 21.4255 4.94051C21.5899 5.48279 21.5899 6.04326 21.4255 6.58554C21.2464 7.1766 20.9476 7.61832 20.2062 8.35978L18.8337 9.73226C18.0922 10.4737 17.6505 10.7725 17.0595 10.9516C16.5172 11.116 15.9567 11.116 15.4144 10.9516C14.8234 10.7725 14.3817 10.4737 13.6402 9.73226L12.2677 8.35978C11.5263 7.61832 11.2275 7.1766 11.0484 6.58554C10.884 6.04326 10.884 5.48279 11.0484 4.94051C11.2275 4.34945 11.5263 3.90773 12.2677 3.16627L13.7548 1.68035C14.4286 1.02121 14.8545 0.744163 15.4144 0.574444ZM4.1236 1.12017L6.22586 1.12102C7.16834 1.13133 7.66541 1.2366 8.18136 1.51254C8.68104 1.77977 9.07735 2.17608 9.34457 2.67575C9.63584 3.22037 9.73695 3.74395 9.73695 4.79253V6.73351C9.73695 7.7821 9.63584 8.30568 9.34457 8.8503C9.07735 9.34997 8.68104 9.74628 8.18136 10.0135C7.63675 10.3048 7.11316 10.4059 6.06458 10.4059H4.1236C3.07502 10.4059 2.55144 10.3048 2.00682 10.0135C1.50714 9.74628 1.11083 9.34997 0.843606 8.8503C0.552341 8.30568 0.451233 7.7821 0.451233 6.73351L0.452086 4.63125C0.462403 3.68878 0.567671 3.1917 0.843606 2.67575C1.11083 2.17608 1.50714 1.77977 2.00682 1.51254C2.55144 1.22127 3.07502 1.12017 4.1236 1.12017ZM16.6554 1.90742C16.3766 1.8229 16.0973 1.8229 15.8185 1.90742C15.4763 2.01112 15.2179 2.18591 14.6251 2.77868L13.1624 4.24204C12.6416 4.77138 12.4796 5.02041 12.3813 5.34453C12.2968 5.62338 12.2968 5.90267 12.3813 6.18152C12.4741 6.48763 12.6238 6.72676 13.0789 7.19831L13.2526 7.37488L14.6251 8.74736C15.2179 9.34014 15.4763 9.51493 15.8185 9.61863C16.0973 9.70315 16.3766 9.70315 16.6554 9.61863C16.9616 9.52584 17.2007 9.37615 17.6722 8.92106L17.8488 8.74736L19.2213 7.37488C19.8141 6.7821 19.9889 6.52365 20.0926 6.18152C20.1771 5.90267 20.1771 5.62338 20.0926 5.34453C19.9889 5.0024 19.8141 4.74394 19.2213 4.15117L17.7579 2.68851C17.2286 2.16771 16.9796 2.00566 16.6554 1.90742ZM6.06458 2.51302L3.99558 2.51352C3.25302 2.51955 2.96234 2.58106 2.66369 2.74078C2.40674 2.87819 2.20926 3.07568 2.07185 3.33262C1.90325 3.64787 1.84409 3.95422 1.84409 4.79253L1.84459 6.86154C1.85062 7.6041 1.91212 7.89477 2.07185 8.19343C2.20926 8.45037 2.40674 8.64785 2.66369 8.78527C2.94575 8.93612 3.22069 8.99936 3.87592 9.011L4.1236 9.01302H6.06458C6.90289 9.01302 7.20925 8.95386 7.52449 8.78527C7.78144 8.64785 7.97892 8.45037 8.11633 8.19343C8.26718 7.91136 8.33042 7.63642 8.34206 6.98119L8.34409 6.73351V4.79253C8.34409 3.95422 8.28493 3.64787 8.11633 3.33262C7.97892 3.07568 7.78144 2.87819 7.52449 2.74078C7.20925 2.57218 6.90289 2.51302 6.06458 2.51302Z" fill="url(#paint0_linear_582_2916)"/>
<defs>
<linearGradient id="paint0_linear_582_2916" x1="0.451233" y1="11" x2="21.5488" y2="11" gradientUnits="userSpaceOnUse">
<stop stop-color="#00CC5E"/>
<stop offset="1" stop-color="#00B3FF"/>
</linearGradient>
</defs>
</svg>
