<svg width="24" height="24" viewBox="0 0 24 24" fill="none" xmlns="http://www.w3.org/2000/svg">
<path d="M13.6251 1.97913C14.0738 1.97913 14.4376 1.61535 14.4376 1.16663C14.4376 0.717899 14.0738 0.354126 13.6251 0.354126V1.97913ZM23.6459 10.375C23.6459 9.92624 23.2821 9.56246 22.8334 9.56246C22.3847 9.56246 22.0209 9.92624 22.0209 10.375H23.6459ZM13.8765 22.5838L14.4638 21.5917L13.0653 20.7639L12.478 21.7561L13.8765 22.5838ZM9.53635 21.5917L10.1236 22.5838L11.522 21.7561L10.9347 20.7639L9.53635 21.5917ZM12.478 21.7561C12.2693 22.1089 11.7309 22.1089 11.522 21.7561L10.1236 22.5838C10.9617 23.9997 13.0385 23.9997 13.8765 22.5838L12.478 21.7561ZM10.3751 1.97913H13.6251V0.354126H10.3751V1.97913ZM22.0209 10.375V11.4583H23.6459V10.375H22.0209ZM1.97925 11.4583V10.375H0.354248V11.4583H1.97925ZM0.354248 11.4583C0.354248 12.7091 0.353804 13.6879 0.407667 14.4773C0.46204 15.2741 0.574414 15.9372 0.828412 16.5504L2.32972 15.9286C2.1714 15.5464 2.07763 15.0807 2.02891 14.3667C1.97969 13.6454 1.97925 12.7313 1.97925 11.4583H0.354248ZM7.45279 18.7617C6.09273 18.7382 5.38008 18.6517 4.82147 18.4203L4.19962 19.9216C5.07167 20.2828 6.06491 20.363 7.4248 20.3864L7.45279 18.7617ZM0.828412 16.5504C1.46063 18.0767 2.6733 19.2894 4.19962 19.9216L4.82147 18.4203C3.69332 17.953 2.79701 17.0567 2.32972 15.9286L0.828412 16.5504ZM22.0209 11.4583C22.0209 12.7313 22.0205 13.6454 21.9713 14.3667C21.9225 15.0807 21.8287 15.5464 21.6705 15.9286L23.1717 16.5504C23.4258 15.9372 23.5381 15.2741 23.5925 14.4773C23.6463 13.6879 23.6459 12.7091 23.6459 11.4583H22.0209ZM16.5753 20.3864C17.9352 20.363 18.9285 20.2828 19.8005 19.9216L19.1787 18.4203C18.6201 18.6517 17.9074 18.7382 16.5474 18.7617L16.5753 20.3864ZM21.6705 15.9286C21.2031 17.0567 20.3069 17.953 19.1787 18.4203L19.8005 19.9216C21.3268 19.2894 22.5395 18.0767 23.1717 16.5504L21.6705 15.9286ZM10.3751 0.354126C8.61771 0.354126 7.24262 0.35327 6.14587 0.457552C5.03702 0.562982 4.12907 0.781577 3.32868 1.27206L4.17774 2.6576C4.6799 2.34988 5.30978 2.16937 6.29968 2.07525C7.30166 1.97998 8.58624 1.97913 10.3751 1.97913V0.354126ZM1.97925 10.375C1.97925 8.58612 1.9801 7.30154 2.07537 6.29956C2.16949 5.30966 2.35 4.67978 2.65772 4.17762L1.27218 3.32856C0.781699 4.12895 0.563104 5.0369 0.457674 6.14575C0.353392 7.2425 0.354248 8.61759 0.354248 10.375H1.97925ZM3.32868 1.27206C2.49052 1.78569 1.78581 2.49039 1.27218 3.32856L2.65772 4.17762C3.03736 3.55811 3.55823 3.03724 4.17774 2.6576L3.32868 1.27206ZM10.9347 20.7639C10.7148 20.3923 10.5218 20.0644 10.334 19.8068C10.1362 19.5355 9.90946 19.2912 9.59493 19.1083L8.77794 20.513C8.8293 20.5428 8.89928 20.5973 9.02075 20.7639C9.15224 20.9444 9.30079 21.1937 9.53635 21.5917L10.9347 20.7639ZM7.4248 20.3864C7.90048 20.3946 8.20177 20.4007 8.43145 20.426C8.64607 20.4499 8.72926 20.4846 8.77794 20.513L9.59493 19.1083C9.27777 18.9238 8.94775 18.8483 8.6103 18.8109C8.28792 18.7752 7.89831 18.7694 7.45279 18.7617L7.4248 20.3864ZM14.4638 21.5917C14.6993 21.1937 14.8478 20.9444 14.9794 20.7639C15.1008 20.5973 15.1708 20.5428 15.2221 20.513L14.4052 19.1083C14.0907 19.2912 13.8638 19.5355 13.6661 19.8068C13.4784 20.0644 13.2853 20.3923 13.0653 20.7639L14.4638 21.5917ZM16.5474 18.7617C16.1018 18.7694 15.7122 18.7752 15.3898 18.8109C15.0524 18.8483 14.7224 18.9238 14.4052 19.1083L15.2221 20.513C15.2709 20.4846 15.3541 20.4499 15.5687 20.426C15.7984 20.4007 16.0996 20.3946 16.5753 20.3864L16.5474 18.7617Z" fill="#9A9A9A"/>
<path fill-rule="evenodd" clip-rule="evenodd" d="M19.5834 1.91663C18.2027 1.91663 17.0834 3.03591 17.0834 4.41663C17.0834 5.79734 18.2027 6.91663 19.5834 6.91663C20.9641 6.91663 22.0834 5.79734 22.0834 4.41663C22.0834 3.03591 20.9641 1.91663 19.5834 1.91663ZM15.5834 4.41663C15.5834 2.20749 17.3743 0.416626 19.5834 0.416626C21.7926 0.416626 23.5834 2.20749 23.5834 4.41663C23.5834 6.62577 21.7926 8.41663 19.5834 8.41663C17.3743 8.41663 15.5834 6.62577 15.5834 4.41663ZM5.25008 11C5.25008 10.5857 5.58587 10.25 6.00008 10.25H16.5001C16.9143 10.25 17.2501 10.5857 17.2501 11C17.2501 11.4142 16.9143 11.75 16.5001 11.75H6.00008C5.58587 11.75 5.25008 11.4142 5.25008 11ZM5.25008 14C5.25008 13.5857 5.58587 13.25 6.00008 13.25H12.5001C12.9143 13.25 13.2501 13.5857 13.2501 14C13.2501 14.4142 12.9143 14.75 12.5001 14.75H6.00008C5.58587 14.75 5.25008 14.4142 5.25008 14Z" fill="#9A9A9A"/>
</svg>
