<svg width="24" height="24" viewBox="0 0 24 24" fill="none" xmlns="http://www.w3.org/2000/svg">
<path d="M13.625 1.979C14.0737 1.979 14.4375 1.61523 14.4375 1.1665C14.4375 0.717777 14.0737 0.354004 13.625 0.354004V1.979ZM23.6459 10.3748C23.6459 9.92612 23.2821 9.56234 22.8334 9.56234C22.3846 9.56234 22.0209 9.92612 22.0209 10.3748H23.6459ZM13.8765 22.5837L14.4637 21.5916L13.0653 20.7638L12.478 21.756L13.8765 22.5837ZM9.53629 21.5916L10.1236 22.5837L11.5219 21.756L10.9347 20.7638L9.53629 21.5916ZM12.478 21.756C12.2692 22.1087 11.7308 22.1087 11.5219 21.756L10.1236 22.5837C10.9616 23.9996 13.0384 23.9996 13.8765 22.5837L12.478 21.756ZM10.375 1.979H13.625V0.354004H10.375V1.979ZM22.0209 10.3748V11.4582H23.6459V10.3748H22.0209ZM1.97919 11.4582V10.3748H0.354187V11.4582H1.97919ZM0.354187 11.4582C0.354187 12.709 0.353743 13.6878 0.407606 14.4772C0.461979 15.274 0.574353 15.9371 0.828351 16.5503L2.32966 15.9284C2.17134 15.5462 2.07756 15.0806 2.02885 14.3666C1.97963 13.6453 1.97919 12.7312 1.97919 11.4582H0.354187ZM7.45273 18.7616C6.09267 18.7381 5.38002 18.6516 4.82141 18.4202L4.19955 19.9215C5.07161 20.2827 6.06485 20.3628 7.42473 20.3862L7.45273 18.7616ZM0.828351 16.5503C1.46057 18.0766 2.67324 19.2893 4.19955 19.9215L4.82141 18.4202C3.69326 17.9529 2.79695 17.0566 2.32966 15.9284L0.828351 16.5503ZM22.0209 11.4582C22.0209 12.7312 22.0204 13.6453 21.9712 14.3666C21.9225 15.0806 21.8287 15.5462 21.6704 15.9284L23.1717 16.5503C23.4257 15.9371 23.5381 15.274 23.5924 14.4772C23.6463 13.6878 23.6459 12.709 23.6459 11.4582H22.0209ZM16.5753 20.3862C17.9352 20.3628 18.9285 20.2827 19.8005 19.9215L19.1786 18.4202C18.6201 18.6516 17.9073 18.7381 16.5473 18.7616L16.5753 20.3862ZM21.6704 15.9284C21.203 17.0566 20.3068 17.9529 19.1786 18.4202L19.8005 19.9215C21.3268 19.2893 22.5394 18.0766 23.1717 16.5503L21.6704 15.9284ZM10.375 0.354004C8.61765 0.354004 7.24256 0.353148 6.14581 0.45743C5.03696 0.56286 4.12901 0.781455 3.32862 1.27193L4.17768 2.65747C4.67984 2.34975 5.30972 2.16925 6.29962 2.07513C7.3016 1.97986 8.58618 1.979 10.375 1.979V0.354004ZM1.97919 10.3748C1.97919 8.58599 1.98004 7.30142 2.07531 6.29944C2.16943 5.30954 2.34994 4.67966 2.65766 4.1775L1.27212 3.32844C0.781638 4.12883 0.563043 5.03678 0.457613 6.14562C0.353331 7.24238 0.354187 8.61747 0.354187 10.3748H1.97919ZM3.32862 1.27193C2.49046 1.78556 1.78575 2.49027 1.27212 3.32844L2.65766 4.1775C3.0373 3.55798 3.55817 3.03712 4.17768 2.65747L3.32862 1.27193ZM10.9347 20.7638C10.7148 20.3922 10.5217 20.0643 10.334 19.8067C10.1361 19.5354 9.9094 19.2911 9.59487 19.1081L8.77788 20.5129C8.82924 20.5427 8.89922 20.5972 9.02069 20.7638C9.15217 20.9443 9.30073 21.1935 9.53629 21.5916L10.9347 20.7638ZM7.42473 20.3862C7.90042 20.3945 8.20171 20.4005 8.43139 20.4259C8.64601 20.4497 8.7292 20.4845 8.77788 20.5129L9.59487 19.1081C9.27771 18.9236 8.94768 18.8481 8.61024 18.8108C8.28786 18.7751 7.89825 18.7693 7.45273 18.7616L7.42473 20.3862ZM14.4637 21.5916C14.6993 21.1935 14.8478 20.9443 14.9793 20.7638C15.1007 20.5972 15.1707 20.5427 15.2221 20.5129L14.4051 19.1081C14.0906 19.2911 13.8638 19.5354 13.6661 19.8067C13.4783 20.0643 13.2853 20.3922 13.0653 20.7638L14.4637 21.5916ZM16.5473 18.7616C16.1017 18.7693 15.7122 18.7751 15.3898 18.8108C15.0523 18.8481 14.7223 18.9236 14.4051 19.1081L15.2221 20.5129C15.2708 20.4845 15.354 20.4497 15.5686 20.4259C15.7983 20.4005 16.0996 20.3945 16.5753 20.3862L16.5473 18.7616Z" fill="url(#paint0_linear_582_3017)"/>
<path fill-rule="evenodd" clip-rule="evenodd" d="M19.5834 1.9165C18.2026 1.9165 17.0834 3.03579 17.0834 4.4165C17.0834 5.79722 18.2026 6.9165 19.5834 6.9165C20.9641 6.9165 22.0834 5.79722 22.0834 4.4165C22.0834 3.03579 20.9641 1.9165 19.5834 1.9165ZM15.5834 4.4165C15.5834 2.20737 17.3742 0.416504 19.5834 0.416504C21.7925 0.416504 23.5834 2.20737 23.5834 4.4165C23.5834 6.62564 21.7925 8.4165 19.5834 8.4165C17.3742 8.4165 15.5834 6.62564 15.5834 4.4165ZM5.25002 10.9998C5.25002 10.5856 5.58581 10.2498 6.00002 10.2498H16.5C16.9142 10.2498 17.25 10.5856 17.25 10.9998C17.25 11.4141 16.9142 11.7498 16.5 11.7498H6.00002C5.58581 11.7498 5.25002 11.4141 5.25002 10.9998ZM5.25002 13.9998C5.25002 13.5856 5.58581 13.2498 6.00002 13.2498H12.5C12.9142 13.2498 13.25 13.5856 13.25 13.9998C13.25 14.4141 12.9142 14.7498 12.5 14.7498H6.00002C5.58581 14.7498 5.25002 14.4141 5.25002 13.9998Z" fill="url(#paint1_linear_582_3017)"/>
<defs>
<linearGradient id="paint0_linear_582_3017" x1="0.0833537" y1="14.6617" x2="23.9167" y2="14.6617" gradientUnits="userSpaceOnUse">
<stop stop-color="#01CC5F"/>
<stop offset="1" stop-color="#01B4FD"/>
</linearGradient>
<linearGradient id="paint1_linear_582_3017" x1="0.0833537" y1="14.6617" x2="23.9167" y2="14.6617" gradientUnits="userSpaceOnUse">
<stop stop-color="#01CC5F"/>
<stop offset="1" stop-color="#01B4FD"/>
</linearGradient>
</defs>
</svg>
