<svg width="26" height="26" viewBox="0 0 26 26" fill="none" xmlns="http://www.w3.org/2000/svg">
<path d="M13.0001 4.33333C16.682 4.33333 19.6668 7.31811 19.6668 11V13.9861C19.6668 14.6392 19.9064 15.2696 20.3403 15.7577L22.0412 17.6713C23.1877 18.9611 22.2721 21 20.5464 21H5.45375C3.72805 21 2.81244 18.9611 3.95893 17.6713L5.65981 15.7577C6.09371 15.2696 6.33339 14.6392 6.33339 13.9861L6.33341 11C6.33341 7.31811 9.31819 4.33333 13.0001 4.33333ZM13.0001 4.33333V1M1 11.6668C1 7.50621 3.11737 3.8402 6.33333 1.68749M25 11.6668C25 7.50621 22.8827 3.8402 19.6667 1.68749M11.6667 25H14.3333" stroke="#9A9A9A" stroke-width="1.5" stroke-linecap="round" stroke-linejoin="round"/>
</svg>
