<svg width="18" height="24" viewBox="0 0 18 24" fill="none" xmlns="http://www.w3.org/2000/svg">
<path fill-rule="evenodd" clip-rule="evenodd" d="M8.82094 2.01953C6.57131 2.01953 4.76099 3.83847 4.76099 6.07953C4.76099 8.26241 6.46734 10.0338 8.62121 10.1275C8.74923 10.1185 8.88469 10.118 9.0118 10.1275C11.1638 10.0327 12.871 8.26244 12.8809 6.07801C12.8801 3.83875 11.0604 2.01953 8.82094 2.01953ZM3.26099 6.07953C3.26099 3.01226 5.74067 0.519531 8.82094 0.519531C11.8893 0.519531 14.3809 3.01115 14.3809 6.07953L14.3809 6.08266C14.3684 9.08305 12.0036 11.528 9.01947 11.6283C8.98616 11.6294 8.95281 11.6283 8.91965 11.625C8.86309 11.6193 8.78103 11.6187 8.70467 11.6256C8.67373 11.6284 8.64263 11.6293 8.61158 11.6283C5.62808 11.528 3.26099 9.0829 3.26099 6.07953ZM9.00803 12.6393C11.0875 12.6393 13.2048 13.1614 14.8385 14.2525C16.3053 15.2287 17.1382 16.5916 17.1382 18.0517C17.1382 19.5117 16.3054 20.8771 14.8392 21.8586L14.8391 21.8587C13.2003 22.9552 11.0802 23.4804 8.99991 23.4804C6.9199 23.4804 4.80022 22.9554 3.16153 21.8592C1.69466 20.883 0.861572 19.52 0.861572 18.0598C0.861572 16.5999 1.69443 15.2344 3.16061 14.253L3.16337 14.2511C4.8068 13.1615 6.92834 12.6393 9.00803 12.6393ZM3.99367 15.5004C2.83917 16.2737 2.36157 17.2153 2.36157 18.0598C2.36157 18.9042 2.83899 19.843 3.99325 20.6109L3.99489 20.612C5.33526 21.5089 7.14774 21.9804 8.99991 21.9804C10.8521 21.9804 12.6646 21.5089 14.0049 20.612C15.1603 19.8385 15.6382 18.8965 15.6382 18.0517C15.6382 17.2074 15.1608 16.2685 14.0066 15.5006L14.0054 15.4999C12.6708 14.6085 10.8611 14.1393 9.00803 14.1393C7.15586 14.1393 5.3401 14.6081 3.99367 15.5004Z" fill="#9A9A9A"/>
</svg>
