<svg width="26" height="26" viewBox="0 0 26 26" fill="none" xmlns="http://www.w3.org/2000/svg">
<path fill-rule="evenodd" clip-rule="evenodd" d="M4.04331 4.0436C8.98996 -0.903041 17.01 -0.903041 21.9567 4.0436C26.9033 8.99024 26.9033 17.0103 21.9567 21.957C21.2068 22.7068 20.3864 23.343 19.5167 23.8655C19.5149 23.8666 19.5131 23.8676 19.5114 23.8687C14.6445 26.7895 8.23858 26.1522 4.04331 21.957C-0.903326 17.0103 -0.903325 8.99024 4.04331 4.0436ZM19.2275 22.2717C19.8161 21.8754 20.3754 21.4169 20.896 20.8963C21.5801 20.2122 22.1569 19.4614 22.6264 18.6649L19.6027 15.9994C19.2527 16.7704 18.7606 17.4927 18.1265 18.1268C17.5848 18.6685 16.9788 19.1065 16.333 19.4409L19.2275 22.2717ZM14.7875 20.0276L17.877 23.049C14.9086 24.4899 11.4343 24.5379 8.43217 23.1933L11.247 20.0363C12.4084 20.3245 13.6273 20.3216 14.7875 20.0276ZM11.2364 18.4744C11.2326 18.4731 11.2287 18.4719 11.2248 18.4707C10.3871 18.1996 9.5994 17.7314 8.93414 17.0661C7.41297 15.545 6.92228 13.3836 7.46207 11.4493C7.46348 11.4445 7.46484 11.4396 7.46615 11.4347C7.72429 10.5191 8.21361 9.65494 8.93414 8.93442C10.4329 7.43565 12.5532 6.93723 14.4654 7.43918C14.468 7.43988 14.4706 7.44058 14.4733 7.44126C15.4231 7.69202 16.3212 8.18974 17.0659 8.93442C17.7317 9.60025 18.2001 10.3888 18.4711 11.2272C18.472 11.2302 18.473 11.2332 18.474 11.2362C18.8143 12.2953 18.8399 13.4335 18.5508 14.5045C18.5494 14.5092 18.5481 14.514 18.5469 14.5187C18.2924 15.4518 17.7987 16.3333 17.0659 17.0661C15.4887 18.6433 13.2233 19.1127 11.2364 18.4744ZM20.1058 14.4432L23.3189 17.2758C24.5066 14.4062 24.4463 11.1418 23.1383 8.31226L20.0328 11.2344C20.2956 12.2853 20.3199 13.3836 20.1058 14.4432ZM19.463 9.71091L22.3916 6.95515C21.9687 6.29947 21.4701 5.67838 20.896 5.10426C20.2596 4.46784 19.5655 3.92429 18.8305 3.47363L16.0063 6.40079C16.7746 6.75065 17.4944 7.24164 18.1265 7.87376C18.6804 8.42761 19.1259 9.04877 19.463 9.71091ZM14.4157 5.88906L17.4423 2.75203C14.5321 1.4915 11.1946 1.52854 8.30951 2.86315L11.3034 5.95053C12.3242 5.7059 13.3877 5.68541 14.4157 5.88906ZM9.75917 6.51276L6.94756 3.61336C6.29457 4.0353 5.67597 4.53227 5.10397 5.10426C4.4208 5.78744 3.84465 6.53711 3.37552 7.33245L6.41449 9.96348C6.76341 9.20661 7.24974 8.4975 7.87348 7.87376C8.44084 7.3064 9.07884 6.85273 9.75917 6.51276ZM5.90476 11.5062L2.68399 8.7178C1.57948 11.3814 1.55056 14.3857 2.59722 17.0672L5.83273 14.0956C5.70214 13.2365 5.72615 12.3584 5.90476 11.5062ZM6.27857 15.7228C6.63248 16.5977 7.16411 17.4174 7.87348 18.1268C8.43454 18.6879 9.06469 19.1378 9.73653 19.4765L7.07107 22.4659C6.3725 22.0274 5.71191 21.5042 5.10397 20.8963C4.36879 20.1611 3.75754 19.3489 3.27024 18.4857L6.27857 15.7228Z" fill="url(#paint0_linear_582_2956)"/>
<defs>
<linearGradient id="paint0_linear_582_2956" x1="4.04331" y1="4.0436" x2="21.9567" y2="21.957" gradientUnits="userSpaceOnUse">
<stop stop-color="#00CC5E"/>
<stop offset="1" stop-color="#00B3FF"/>
</linearGradient>
</defs>
</svg>
