<svg width="26" height="26" viewBox="0 0 26 26" fill="none" xmlns="http://www.w3.org/2000/svg">
<path fill-rule="evenodd" clip-rule="evenodd" d="M4.04331 4.04336C8.98996 -0.903285 17.01 -0.903285 21.9567 4.04336C26.9033 8.99 26.9033 17.0101 21.9567 21.9567C21.2068 22.7066 20.3864 23.3428 19.5167 23.8653C19.5149 23.8663 19.5131 23.8674 19.5114 23.8685C14.6445 26.7892 8.23858 26.152 4.04331 21.9567C-0.903326 17.0101 -0.903325 8.99 4.04331 4.04336ZM19.2275 22.2715C19.8161 21.8752 20.3754 21.4167 20.896 20.8961C21.5801 20.212 22.1569 19.4612 22.6264 18.6647L19.6027 15.9992C19.2527 16.7702 18.7606 17.4925 18.1265 18.1266C17.5848 18.6682 16.9788 19.1063 16.333 19.4407L19.2275 22.2715ZM14.7875 20.0274L17.877 23.0488C14.9086 24.4896 11.4343 24.5377 8.43217 23.193L11.247 20.036C12.4084 20.3242 13.6273 20.3213 14.7875 20.0274ZM11.2364 18.4742C11.2326 18.4729 11.2287 18.4716 11.2248 18.4704C10.3871 18.1993 9.5994 17.7312 8.93414 17.0659C7.41297 15.5447 6.92228 13.3833 7.46207 11.4491C7.46348 11.4442 7.46484 11.4394 7.46615 11.4345C7.72429 10.5189 8.21361 9.6547 8.93414 8.93418C10.4329 7.43541 12.5532 6.93699 14.4654 7.43893C14.468 7.43964 14.4706 7.44033 14.4733 7.44101C15.4231 7.69178 16.3212 8.1895 17.0659 8.93418C17.7317 9.60001 18.2001 10.3885 18.4711 11.2269C18.472 11.2299 18.473 11.233 18.474 11.2359C18.8143 12.295 18.8399 13.4333 18.5508 14.5042C18.5494 14.509 18.5481 14.5137 18.5469 14.5185C18.2924 15.4516 17.7987 16.333 17.0659 17.0659C15.4887 18.6431 13.2233 19.1125 11.2364 18.4742ZM20.1058 14.443L23.3189 17.2755C24.5066 14.4059 24.4463 11.1416 23.1383 8.31201L20.0328 11.2342C20.2956 12.2851 20.3199 13.3833 20.1058 14.443ZM19.463 9.71066L22.3916 6.95491C21.9687 6.29923 21.4701 5.67814 20.896 5.10402C20.2596 4.46759 19.5655 3.92405 18.8305 3.47339L16.0063 6.40055C16.7746 6.75041 17.4944 7.2414 18.1265 7.87352C18.6804 8.42736 19.1259 9.04852 19.463 9.71066ZM14.4157 5.88882L17.4423 2.75179C14.5321 1.49126 11.1946 1.52829 8.30951 2.8629L11.3034 5.95028C12.3242 5.70565 13.3877 5.68517 14.4157 5.88882ZM9.75917 6.51251L6.94756 3.61312C6.29457 4.03506 5.67597 4.53202 5.10397 5.10402C4.4208 5.78719 3.84465 6.53687 3.37552 7.33221L6.41449 9.96324C6.76341 9.20637 7.24974 8.49725 7.87348 7.87352C8.44084 7.30616 9.07884 6.85249 9.75917 6.51251ZM5.90476 11.506L2.68399 8.71756C1.57948 11.3811 1.55056 14.3855 2.59722 17.0669L5.83273 14.0954C5.70214 13.2362 5.72615 12.3581 5.90476 11.506ZM6.27857 15.7225C6.63248 16.5974 7.16411 17.4172 7.87348 18.1266C8.43454 18.6876 9.06469 19.1375 9.73653 19.4762L7.07107 22.4656C6.3725 22.0272 5.71191 21.504 5.10397 20.8961C4.36879 20.1609 3.75754 19.3487 3.27024 18.4854L6.27857 15.7225Z" fill="#9A9A9A"/>
</svg>
