<svg width="23" height="23" viewBox="0 0 23 23" fill="none" xmlns="http://www.w3.org/2000/svg">
<path d="M15.2501 8.74996C17.0451 8.74996 18.5001 7.29488 18.5001 5.49996C18.5001 3.70504 17.0451 2.24996 15.2501 2.24996M18.5001 14.1666C20.4005 14.5834 21.7501 15.6388 21.7501 16.875C21.7501 17.99 20.6519 18.9581 19.0417 19.4429M13.0834 5.49996C13.0834 7.89319 11.1433 9.83329 8.75008 9.83329C6.35685 9.83329 4.41675 7.89319 4.41675 5.49996C4.41675 3.10673 6.35685 1.16663 8.75008 1.16663C11.1433 1.16663 13.0834 3.10673 13.0834 5.49996ZM16.3334 17.4166C16.3334 19.8099 12.9382 21.75 8.75008 21.75C4.56192 21.75 1.16675 19.8099 1.16675 17.4166C1.16675 15.0234 4.56192 13.0833 8.75008 13.0833C12.9382 13.0833 16.3334 15.0234 16.3334 17.4166Z" stroke="#9A9A9A" stroke-width="1.5" stroke-linecap="round" stroke-linejoin="round"/>
</svg>
