<svg width="23" height="23" viewBox="0 0 23 23" fill="none" xmlns="http://www.w3.org/2000/svg">
<path d="M15.25 8.74984C17.045 8.74984 18.5 7.29476 18.5 5.49984C18.5 3.70492 17.045 2.24984 15.25 2.24984M18.5 14.1665C20.4004 14.5833 21.75 15.6386 21.75 16.8748C21.75 17.9899 20.6518 18.958 19.0417 19.4428M13.0834 5.49984C13.0834 7.89307 11.1433 9.83317 8.75002 9.83317C6.35679 9.83317 4.41669 7.89307 4.41669 5.49984C4.41669 3.1066 6.35679 1.1665 8.75002 1.1665C11.1433 1.1665 13.0834 3.1066 13.0834 5.49984ZM16.3334 17.4165C16.3334 19.8097 12.9382 21.7498 8.75002 21.7498C4.56186 21.7498 1.16669 19.8097 1.16669 17.4165C1.16669 15.0233 4.56186 13.0832 8.75002 13.0832C12.9382 13.0832 16.3334 15.0233 16.3334 17.4165Z" stroke="url(#paint0_linear_582_2996)" stroke-width="1.5" stroke-linecap="round" stroke-linejoin="round"/>
<defs>
<linearGradient id="paint0_linear_582_2996" x1="1.60264" y1="14.1599" x2="22.3896" y2="14.0139" gradientUnits="userSpaceOnUse">
<stop stop-color="#00CC5E"/>
<stop offset="1" stop-color="#0066FF"/>
</linearGradient>
</defs>
</svg>
