<svg width="24" height="22" viewBox="0 0 24 22" fill="none" xmlns="http://www.w3.org/2000/svg">
<path fill-rule="evenodd" clip-rule="evenodd" d="M11.7026 2.57085L9.09817 5.28748H17.9114C17.7798 4.93856 17.5909 4.62559 17.3384 4.37021L15.5632 2.57471C14.4774 1.47643 12.7899 1.47513 11.7026 2.57085ZM18.8099 6.78748H8.2069C7.9181 6.78748 7.82806 6.79041 7.65755 6.8479C7.60799 6.86461 7.55682 6.87609 7.50488 6.88215C6.39298 7.01191 5.53873 7.47901 4.9587 8.16684C4.37562 8.85829 4.02587 9.82552 4.02587 11.025V12.0225C4.02587 12.4367 3.69008 12.7725 3.27587 12.7725C2.86165 12.7725 2.52587 12.4367 2.52587 12.0225V11.025C2.52587 9.5312 2.96508 8.20417 3.812 7.19985C4.581 6.28793 5.65027 5.68523 6.92251 5.45316C7.07708 5.21417 7.26572 5.02408 7.43329 4.85524C7.44641 4.84201 7.45941 4.82891 7.47226 4.81593L10.6321 1.52004C12.3064 -0.173382 14.9556 -0.173333 16.6299 1.52011L18.4051 3.3156C18.9956 3.91289 19.3341 4.65126 19.5041 5.38754C22.0741 5.95485 23.75 8.19298 23.75 11.025V11.5213C23.75 11.5221 23.75 11.5229 23.75 11.5237C23.75 11.5246 23.75 11.5254 23.75 11.5262V15.5113C23.75 15.5121 23.75 15.513 23.75 15.5138C23.75 15.5146 23.75 15.5154 23.75 15.5162V16.0125C23.75 17.6767 23.1985 19.1229 22.1773 20.1558C21.1553 21.1894 19.7213 21.75 18.069 21.75H13.1379C12.7237 21.75 12.3879 21.4142 12.3879 21C12.3879 20.5858 12.7237 20.25 13.1379 20.25H18.069C19.3753 20.25 20.4067 19.8131 21.1106 19.1012C21.7702 18.434 22.1933 17.4734 22.2447 16.2638H20.0414C18.5343 16.2638 17.319 15.0221 17.319 13.5188C17.319 12.0154 18.5343 10.7737 20.0414 10.7737H22.2445C22.1469 8.57 20.763 7.04425 18.8099 6.78748ZM22.25 12.2737H20.0414C19.3788 12.2737 18.819 12.8276 18.819 13.5188C18.819 14.2099 19.3788 14.7638 20.0414 14.7638H22.25V12.2737ZM7.53276 13.7632C7.53276 13.349 7.86855 13.0132 8.28276 13.0132H11.9241C12.3384 13.0132 12.6741 13.349 12.6741 13.7632V17.4463C12.6741 17.8605 12.3384 18.1963 11.9241 18.1963C11.5099 18.1963 11.1741 17.8605 11.1741 17.4463V15.5658L5.17004 21.532C5.02474 21.6764 4.82672 21.7551 4.62196 21.7498C4.41719 21.7445 4.22351 21.6556 4.08589 21.5039L0.444509 17.4898C0.166208 17.183 0.189305 16.7087 0.496097 16.4304C0.802889 16.1521 1.2772 16.1752 1.5555 16.482L4.66951 19.9148L10.1054 14.5132H8.28276C7.86855 14.5132 7.53276 14.1774 7.53276 13.7632Z" fill="url(#paint0_linear_582_2946)"/>
<defs>
<linearGradient id="paint0_linear_582_2946" x1="0.25" y1="11" x2="23.75" y2="11" gradientUnits="userSpaceOnUse">
<stop stop-color="#00CC5E"/>
<stop offset="1" stop-color="#00B3FF"/>
</linearGradient>
</defs>
</svg>
